<svg id="Layer_1" data-name="Layer 1" xmlns="http://www.w3.org/2000/svg" width="971.03mm" height="82.97mm" viewBox="0 0 2752.52 235.18">
  <defs>
    <style>
      .cls-1 {
        fill: #dfe3e4;
      }

      .cls-2 {
        fill: #c69c6d;
      }

      .cls-3 {
        fill: #edeeef;
      }

      .cls-4 {
        fill: #754c24;
      }

      .cls-5 {
        fill: #adb8bd;
      }

      .cls-6 {
        fill: #333;
      }

      .cls-7 {
        fill: #eceded;
      }

      .cls-8 {
        fill: #ae4a0c;
      }

      .cls-9 {
        fill: #a5a5a5;
      }

      .cls-10 {
        fill: none;
      }

      .cls-11 {
        fill: #e9eaeb;
      }

      .cls-12 {
        fill: #aa4a0c;
      }

      .cls-13 {
        fill: #c2986d;
      }

      .cls-14 {
        fill: #dbdfe0;
      }

      .cls-15 {
        fill: #a9b4b9;
      }

      .cls-16 {
        fill: #e8e9e9;
      }

      .cls-17 {
        fill: #a1a1a1;
      }

      .cls-18 {
        fill: #e0e3e4;
      }

      .cls-19 {
        fill: #f2f2f2;
      }

      .cls-20 {
        fill: #aab5ba;
      }
    </style>
  </defs>
  <title>tester</title>
  <g>
    <path class="cls-1" d="M209.91,379.72c-35.47,0-70.94,0-106.42-.09-2.52,0-6,1.7-7.25-2.52,3.45-1.37,8.23,2.44,10.72-2.74A36.35,36.35,0,0,1,118.1,373c41.26,0,82.53-.23,123.78,1.34,6.22,2.21,12.45,2.6,18.7.11,6.64-.24,13,2.59,19.78.87l0,2.18Z" transform="translate(-41.22 -150.83)"/>
    <path class="cls-2" d="M260.58,374.45c-6.25,2.49-12.48,2.1-18.7-.11.23-4.41-1.8-7.8-5.65-9.41-4.5-1.88-5.57-5-4.91-9.29l8.57-1.45c1.48,2.35,1.92,5.43,4.8,6.78,4.69,3.35,7.78,8.61,13.24,11Z" transform="translate(-41.22 -150.83)"/>
    <path class="cls-1" d="M92.27,377.12c0,.44,0,.87,0,1.31h-4l-14.72,0-29.41,0-2.89-2.2c15.84-1.31,31.39-2.29,47-1.8A4.58,4.58,0,0,0,92.27,377.12Z" transform="translate(-41.22 -150.83)"/>
    <path class="cls-3" d="M73.52,378.4l14.72,0C84.5,382.24,77.21,382.23,73.52,378.4Z" transform="translate(-41.22 -150.83)"/>
    <path class="cls-2" d="M85.47,366.35c-3.85-4.72-4.81-10.15-4-16h8.11c.37,2.7-.6,5.75,2.58,7.63,6.62,3.91,10.49,10.38,14.79,16.43-2.49,5.18-7.27,1.37-10.72,2.74h-4a4.58,4.58,0,0,1-4-2.75C87.3,371.69,86.39,369,85.47,366.35Z" transform="translate(-41.22 -150.83)"/>
    <path class="cls-4" d="M231.32,355.64c-1.93-5.16-1.61-10.71-2.74-16l9.22-1.39c2,5.15,1.12,10.67,2.09,16Z" transform="translate(-41.22 -150.83)"/>
    <path class="cls-4" d="M306.39,225.52c-1.1-4.71-1.44-9.65-4.37-13.79,1-6.94-2-12.95-4.44-19.11-3.52-8.76-10.09-15.4-15.48-22.87l4.37-2.42c9.47,1.3,17.49-4.3,26.42-5.53l-.06-.06c0,.86-.07,1.72-.1,2.59l-.47.71.74-.45c1,.27,2.68.24,3,.86.63,1.29-.87,1.88-1.83,2.16-7.65,2.18-6.27,6.31-3.31,11.84,6.33,11.81,9.66,24.8,13.45,37.57,1.35,4.57-.89,8.06-4.42,10.24C315.2,230.14,310.51,229,306.39,225.52Z" transform="translate(-41.22 -150.83)"/>
    <path class="cls-4" d="M237,315.56a77.44,77.44,0,0,0,1.06,21.38c-.09.43-.18.86-.28,1.29l-9.22,1.39c-2.38-2.33-.34-5.46-1.46-8l-2.37-14.75c4.5.36,7.56-3.51,11.78-4C236.69,313.75,236.86,314.66,237,315.56Z" transform="translate(-41.22 -150.83)"/>
    <path class="cls-4" d="M81,347.63a21.91,21.91,0,0,0-.07-9.33q.32-2.69.6-5.37c2.84-.46,5.39.85,8.08,1.32l1.09,2.64q-.53,6.71-1.06,13.42H81.48C81.3,349.42,81.13,348.53,81,347.63Z" transform="translate(-41.22 -150.83)"/>
    <path class="cls-5" d="M312.89,161.8l.27-.53-.33.47Z" transform="translate(-41.22 -150.83)"/>
    <path class="cls-2" d="M190.91,346.23a6.5,6.5,0,0,1,.07,1.32c-5,7.41-9.19,15.48-17,20.72-3.25,2.19-4.18,1.5-4.22-2s-.09-7.05-.13-10.57c.43-2.44,1.71-4,4.35-3.94,3.19,0,5.3-1.62,6.9-4.17Z" transform="translate(-41.22 -150.83)"/>
    <path class="cls-2" d="M121.76,351.67l3.87-1.47c1.57,4.37,5.37,5,9.24,5.43.08.46.17.91.25,1.37-1.69,3.89-2.37,10.23-7,9.83-4.51-.38-5.3-6.85-7.32-10.9C120,354.36,120.91,353,121.76,351.67Z" transform="translate(-41.22 -150.83)"/>
    <path class="cls-4" d="M260.71,178.09l13.39-6.93,8-1.41c5.39,7.47,12,14.11,15.48,22.87,2.48,6.16,5.4,12.17,4.44,19.11-3.09-2.13-6.22-4.21-9.26-6.43-5-3.67-9.93-4.6-14.71.36.17-1.83-.73-3.25-1.5-4.85C272.48,192.36,266.78,185.11,260.71,178.09Z" transform="translate(-41.22 -150.83)"/>
    <path class="cls-6" d="M62.87,316.89c-1.88,3.46-5.33,5.33-8.09,7.89l-2.53,1.39q.12-6.66.23-13.33C56.6,312.49,58.86,316.94,62.87,316.89Z" transform="translate(-41.22 -150.83)"/>
    <path class="cls-4" d="M265.93,221.89l-1.11.08c-4-.2-4.41-3.79-5.88-6.32-5-8.65-8.67-18.25-17.07-24.55l1.59-2.3c6.21-2.84,11.67-6.87,17.25-10.71,6.07,7,11.77,14.27,15.84,22.72.77,1.6,1.67,3,1.5,4.85C274.35,211.32,267.93,215,265.93,221.89Z" transform="translate(-41.22 -150.83)"/>
    <path class="cls-7" d="M313,164.59l-.74.45.47-.71Z" transform="translate(-41.22 -150.83)"/>
    <path class="cls-4" d="M239.76,276.75c-1,12-3.28,24-3.23,36.1-4.22.49-7.28,4.36-11.78,4a22.42,22.42,0,0,1-2.79-9.34c-1-6.82-2.08-13.61-5.32-19.83-.35-7,6.34-4.43,9.32-6.91C231.05,281.12,235.28,278.52,239.76,276.75Z" transform="translate(-41.22 -150.83)"/>
    <path class="cls-4" d="M81.48,332.93q-.28-4.65-.59-9.3c1.88-6.15-1.58-12.86,2-18.83,2,3,2.12,7.75,7.11,8.23l-.42,21.22C86.87,333.78,84.32,332.47,81.48,332.93Z" transform="translate(-41.22 -150.83)"/>
    <path class="cls-4" d="M113.89,326.18Q107.7,313.61,101.52,301c5.09-8.74,5.53-17.73,1.42-27,2.38-4.95,4.46-10.07,6.81-15,2.91-6.13,8.48-10.29,10.6-16.63,4.36-13,8.22-26.24,16-37.79l21.45,6.23c-.85,2.72-3.44,3.3-5.53,4.45a28.11,28.11,0,0,0-13.87,17.1c-3.1,10.14-7.21,20-9.48,30.35-2.44,11.09-11.31,20.49-8.58,32.86-.53,2.68-6.13,1.88-4.21,6.34,3.67,8.5,7.19,17.07,10.78,25.61l.36,2.64C122.52,329.88,119,325.43,113.89,326.18Z" transform="translate(-41.22 -150.83)"/>
    <path class="cls-4" d="M189.91,327.71c2.82-3,3.55-7,4.93-10.72,4.53.8,8-3,12.41-2.79-1.4,8.29-6.88,14.61-10.54,21.8-1.78,3.49-3.85,6.83-5.8,10.24l-10,1.32C183.33,340.68,188,334.83,189.91,327.71Z" transform="translate(-41.22 -150.83)"/>
    <path class="cls-4" d="M113.89,326.18c5.1-.75,8.63,3.7,13.41,4,3,8.34,9.87,15.5,7.57,25.41-3.87-.46-7.67-1.06-9.24-5.43.55-1.77,4.35-3.64.85-5.31C118.43,341,117.72,332.64,113.89,326.18Z" transform="translate(-41.22 -150.83)"/>
    <path class="cls-4" d="M102.94,274.08c4.11,9.23,3.67,18.22-1.42,27Q95.75,307,90,313c-5-.48-5.06-5.21-7.11-8.23,7.21-10.36,6.31-21.66,3.83-33.14,3.21-1.4,3.39-5.82,6.89-7C97.81,266.74,99.36,271.42,102.94,274.08Z" transform="translate(-41.22 -150.83)"/>
    <path class="cls-4" d="M207.25,314.2c-4.39-.21-7.88,3.59-12.41,2.79-1.39-3-.66-6.32-1.08-9.47.15-3.57.29-7.15.44-10.72,5.39-2,9.09-8.43,8.77-13.84a32.83,32.83,0,0,0-4.69-15.43c-4.85-8.36-11-15.38-17-22.69-1.83-2.25-3.85-3-7-2-5,1.57-10.1,3-15.16,4.26-10.42,2.53-17.61,9.91-18.76,21.08-2.48.43-3,2.55-3.33,4.42-1.72,9.17-7,15.93-14.06,21.59l-2.64,1.45c-2.73-12.37,6.14-21.77,8.58-32.86,2.27-10.31,6.38-20.21,9.48-30.35a28.11,28.11,0,0,1,13.87-17.1c2.09-1.15,4.68-1.73,5.53-4.45,9.33.64,18.62,2,28,1.67-.1,1.88.23,3.53,2.12,4.47,5.47,2.74,8,8.1,11.14,12.83,2.08,3.12,3.25,8.54,5.88,9.3,9,2.61,10.35,11.45,15.65,16.91,2.4,2.48,4.89,4.63,6.53,8.07,2.91,6.13-.5,11.16-1.21,16.65-3,2.48-9.67,0-9.32,6.91q-4.41,12.63-8.8,25.27Z" transform="translate(-41.22 -150.83)"/>
    <path class="cls-4" d="M113.62,201.58l5.36.26c-16,16.91-14.65,41.11-25.4,60.22-6.16-2.49-6-10-10.92-13.56-2.72-2.89,1.71-8.35-3.7-10.27-1.42-7.32,3.56-13.42,3.88-20.42C91.71,215,97.44,207,106,203.69,108.49,202.76,111.09,202.27,113.62,201.58Z" transform="translate(-41.22 -150.83)"/>
    <path class="cls-6" d="M62.87,316.89c-4,.05-6.27-4.4-10.39-4.05q0-15.36,0-30.71c5.36-1.6,5.8-6.6,7.79-10.74C64,263.57,67.9,255.72,74.84,250a119.42,119.42,0,0,0-1.29,24.4c.69,14.4-1.32,28.17-8.38,40.94Z" transform="translate(-41.22 -150.83)"/>
    <path class="cls-6" d="M74.84,250c-6.94,5.7-10.83,13.55-14.58,21.37-2,4.14-2.43,9.14-7.79,10.74-1.41-21.78,3.2-41.52,19.13-57.58a24.63,24.63,0,0,1,11.24-6.73c-.32,7-5.3,13.09-3.88,20.41Z" transform="translate(-41.22 -150.83)"/>
    <path class="cls-4" d="M226,280.77c.71-5.49,4.12-10.52,1.21-16.65-1.64-3.44-4.13-5.59-6.53-8.07-5.3-5.46-6.61-14.3-15.65-16.91-2.63-.76-3.8-6.18-5.88-9.3C196,225.11,193.44,219.75,188,217c-1.89-.94-2.22-2.59-2.12-4.47,11.48-.34,22.77-1.61,33.29-6.71,2.8,4,8.57,5.45,9.86,10.44,2.54,9.8,11.11,15.38,15.74,23.69,2.21,4,5,7.77,9.18,10.06-2.19,10.25-8.09,18.54-14.16,26.73C235.28,278.52,231.05,281.12,226,280.77Z" transform="translate(-41.22 -150.83)"/>
    <path class="cls-4" d="M253.92,250c-4.22-2.29-7-6.1-9.18-10.06-4.63-8.31-13.2-13.89-15.74-23.69-1.29-5-7.06-6.46-9.86-10.44,2.46-2.5,6.33-3.13,8.32-6.24l14.41-8.49c8.4,6.3,12,15.9,17.07,24.55,1.47,2.53,1.86,6.12,5.88,6.32C259.47,230.65,257,240.47,253.92,250Z" transform="translate(-41.22 -150.83)"/>
    <path class="cls-4" d="M127,201.84l9.37,2.8c-7.81,11.55-11.67,24.77-16,37.79-2.12,6.34-7.69,10.5-10.6,16.63-2.35,4.95-4.43,10.07-6.81,15-3.58-2.66-5.13-7.34-9.35-9.37,0-.88,0-1.77,0-2.65C104.33,243,103,218.75,119,201.84Z" transform="translate(-41.22 -150.83)"/>
    <path class="cls-4" d="M93.58,262.06c0,.88,0,1.77,0,2.65-3.5,1.13-3.68,5.55-6.89,7-3.52-7.34-4.09-15.19-4-23.16C87.54,252,87.42,259.57,93.58,262.06Z" transform="translate(-41.22 -150.83)"/>
    <path class="cls-2" d="M194.2,296.8c-.91-4.55,1.81-10.41-1.36-13.47s-8.88-.72-13.48-1a45.5,45.5,0,0,1-21.24-7c-5.53-3.35-11.06-6.62-17.72-7.15,1.15-11.17,8.34-18.55,18.76-21.08,5.06-1.23,10.16-2.69,15.16-4.26,3.14-1,5.16-.24,7,2,6,7.31,12.12,14.33,17,22.69A32.83,32.83,0,0,1,203,283C203.29,288.37,199.59,294.78,194.2,296.8Z" transform="translate(-41.22 -150.83)"/>
    <path class="cls-8" d="M318.91,362.6" transform="translate(-41.22 -150.83)"/>
    <path class="cls-9" d="M288.39,359.46a.43.43,0,0,0,0-.85.43.43,0,0,0,0,.85Z" transform="translate(-41.22 -150.83)"/>
  </g>
  <g>
    <path class="cls-1" d="M919.35,382.35q-53.21,0-106.42-.08c-2.52,0-6,1.7-7.25-2.52,3.45-1.38,8.24,2.43,10.72-2.75a36.35,36.35,0,0,1,11.14-1.37c41.27,0,82.53-.23,123.78,1.34,6.22,2.21,12.45,2.6,18.7.12,6.64-.25,13,2.59,19.78.87l0,2.18Z" transform="translate(-41.22 -150.83)"/>
    <path class="cls-2" d="M970,377.09c-6.25,2.48-12.48,2.09-18.7-.11.23-4.41-1.8-7.81-5.65-9.41-4.5-1.89-5.57-5-4.91-9.29l8.57-1.46c1.48,2.35,1.92,5.44,4.8,6.79,4.69,3.35,7.78,8.6,13.24,11Z" transform="translate(-41.22 -150.83)"/>
    <path class="cls-1" d="M801.71,379.75c0,.44,0,.88,0,1.32l-4,0L783,381l-29.41,0-2.89-2.2c15.84-1.31,31.39-2.3,47-1.81A4.54,4.54,0,0,0,801.71,379.75Z" transform="translate(-41.22 -150.83)"/>
    <path class="cls-3" d="M783,381l14.72,0C793.94,384.87,786.65,384.86,783,381Z" transform="translate(-41.22 -150.83)"/>
    <path class="cls-2" d="M794.91,369c-3.85-4.72-4.81-10.16-4-16H799c.36,2.71-.61,5.76,2.57,7.64C808.23,364.49,812.1,371,816.4,377c-2.48,5.18-7.27,1.37-10.72,2.75h-4a4.54,4.54,0,0,1-4.05-2.75Z" transform="translate(-41.22 -150.83)"/>
    <path class="cls-4" d="M940.76,358.28c-1.93-5.17-1.61-10.72-2.74-16l9.22-1.39c2,5.15,1.12,10.67,2.09,15.95Z" transform="translate(-41.22 -150.83)"/>
    <path class="cls-4" d="M1015.83,228.16c-1.1-4.71-1.44-9.66-4.37-13.79,1-7-2-13-4.44-19.11-3.52-8.76-10.09-15.41-15.48-22.87l4.37-2.42c9.47,1.3,17.49-4.3,26.42-5.53l-.06-.06c0,.86-.07,1.72-.1,2.58-.15.24-.31.48-.47.71l.74-.44c1,.26,2.68.23,3,.85.63,1.29-.87,1.89-1.83,2.16-7.65,2.18-6.27,6.32-3.31,11.84,6.33,11.82,9.66,24.8,13.45,37.58,1.35,4.57-.89,8.06-4.42,10.24C1024.64,232.78,1020,231.66,1015.83,228.16Z" transform="translate(-41.22 -150.83)"/>
    <path class="cls-4" d="M946.46,318.2a77.34,77.34,0,0,0,1.06,21.37c-.09.44-.18.87-.28,1.3L938,342.26c-2.38-2.33-.34-5.47-1.46-8l-2.37-14.75c4.5.36,7.56-3.52,11.78-4C946.13,316.39,946.3,317.29,946.46,318.2Z" transform="translate(-41.22 -150.83)"/>
    <path class="cls-4" d="M790.39,350.27a22,22,0,0,0-.07-9.34c.21-1.79.41-3.58.61-5.37,2.83-.46,5.38.86,8.07,1.33l1.1,2.64q-.54,6.71-1.06,13.41h-8.12C790.74,352.06,790.57,351.16,790.39,350.27Z" transform="translate(-41.22 -150.83)"/>
    <path class="cls-5" d="M1022.33,164.44l.27-.53-.33.47Z" transform="translate(-41.22 -150.83)"/>
    <path class="cls-2" d="M900.35,348.87a6.46,6.46,0,0,1,.07,1.32c-5,7.41-9.19,15.48-17,20.72-3.25,2.18-4.17,1.5-4.21-2s-.1-7-.14-10.56c.43-2.44,1.71-4,4.35-3.95,3.19.05,5.3-1.62,6.9-4.16Z" transform="translate(-41.22 -150.83)"/>
    <path class="cls-2" d="M831.2,354.3l3.87-1.46c1.57,4.37,5.37,5,9.24,5.43.08.45.17.91.25,1.36-1.69,3.9-2.37,10.24-7,9.84-4.51-.39-5.3-6.85-7.31-10.9C829.43,357,830.35,355.61,831.2,354.3Z" transform="translate(-41.22 -150.83)"/>
    <path class="cls-4" d="M970.15,180.73l13.39-6.93,8-1.41c5.39,7.46,12,14.11,15.48,22.87,2.48,6.16,5.4,12.16,4.44,19.11-3.09-2.14-6.22-4.22-9.26-6.43-5-3.68-9.92-4.61-14.71.36.17-1.84-.73-3.25-1.5-4.86C981.92,195,976.22,187.75,970.15,180.73Z" transform="translate(-41.22 -150.83)"/>
    <path class="cls-6" d="M772.31,319.52c-1.88,3.47-5.33,5.33-8.09,7.89l-2.53,1.4q.12-6.68.23-13.34C766,315.13,768.3,319.58,772.31,319.52Z" transform="translate(-41.22 -150.83)"/>
    <path class="cls-4" d="M975.37,224.53l-1.11.07c-4-.19-4.41-3.78-5.88-6.32-5-8.65-8.67-18.25-17.07-24.55l1.59-2.3c6.21-2.83,11.67-6.86,17.25-10.7,6.07,7,11.77,14.27,15.84,22.71.77,1.61,1.67,3,1.5,4.86C983.79,214,977.37,217.6,975.37,224.53Z" transform="translate(-41.22 -150.83)"/>
    <path class="cls-7" d="M1022.44,167.23l-.74.44c.16-.23.32-.47.47-.71Z" transform="translate(-41.22 -150.83)"/>
    <path class="cls-4" d="M949.2,279.38c-1,12.05-3.28,24-3.23,36.1-4.22.49-7.28,4.37-11.78,4a22.46,22.46,0,0,1-2.79-9.35c-1-6.81-2.08-13.61-5.32-19.82-.35-7,6.34-4.43,9.32-6.91C940.49,283.76,944.72,281.15,949.2,279.38Z" transform="translate(-41.22 -150.83)"/>
    <path class="cls-4" d="M790.93,335.56q-.3-4.65-.59-9.3c1.87-6.15-1.59-12.85,2-18.83,2.05,3,2.12,7.76,7.11,8.24L799,336.89C796.31,336.42,793.76,335.1,790.93,335.56Z" transform="translate(-41.22 -150.83)"/>
    <path class="cls-4" d="M823.33,328.82q-6.18-12.57-12.37-25.15c5.09-8.74,5.53-17.72,1.42-26.95,2.38-5,4.46-10.08,6.81-15,2.91-6.14,8.48-10.3,10.6-16.64,4.36-13,8.22-26.23,16-37.78l21.45,6.23c-.85,2.71-3.44,3.29-5.53,4.44a28.17,28.17,0,0,0-13.87,17.1c-3.1,10.15-7.21,20-9.48,30.36-2.44,11.09-11.31,20.48-8.58,32.86-.53,2.68-6.13,1.88-4.21,6.33,3.67,8.51,7.19,17.08,10.78,25.62l.36,2.63C832,332.52,828.43,328.06,823.33,328.82Z" transform="translate(-41.22 -150.83)"/>
    <path class="cls-4" d="M899.35,330.34c2.82-3,3.55-7,4.94-10.71,4.52.79,8-3,12.4-2.79-1.4,8.28-6.88,14.6-10.54,21.79-1.78,3.49-3.85,6.83-5.8,10.24l-10,1.33C892.77,343.32,897.47,337.47,899.35,330.34Z" transform="translate(-41.22 -150.83)"/>
    <path class="cls-4" d="M823.33,328.82c5.1-.76,8.63,3.7,13.41,4,3,8.34,9.87,15.51,7.57,25.42-3.87-.46-7.67-1.06-9.24-5.43.55-1.78,4.35-3.65.85-5.32C827.87,343.68,827.16,335.27,823.33,328.82Z" transform="translate(-41.22 -150.83)"/>
    <path class="cls-4" d="M812.38,276.72c4.11,9.23,3.67,18.21-1.42,26.95l-11.54,12c-5-.48-5.06-5.21-7.11-8.24,7.21-10.36,6.31-21.65,3.83-33.13,3.21-1.41,3.39-5.83,6.89-6.95C807.25,269.37,808.8,274.06,812.38,276.72Z" transform="translate(-41.22 -150.83)"/>
    <path class="cls-4" d="M916.69,316.84c-4.39-.21-7.88,3.58-12.4,2.79-1.39-3-.67-6.32-1.09-9.47.15-3.58.29-7.15.44-10.73,5.39-2,9.09-8.42,8.77-13.84a32.83,32.83,0,0,0-4.69-15.42c-4.85-8.37-11-15.38-17-22.69-1.83-2.26-3.85-3-7-2-5,1.58-10.1,3-15.16,4.26-10.42,2.54-17.61,9.92-18.76,21.08-2.48.44-3,2.56-3.33,4.43-1.72,9.16-7,15.92-14.06,21.58l-2.64,1.46c-2.73-12.38,6.14-21.77,8.58-32.86,2.27-10.32,6.38-20.21,9.48-30.36A28.17,28.17,0,0,1,861.74,218c2.09-1.15,4.68-1.73,5.53-4.44,9.33.64,18.62,2,28,1.67-.1,1.87.23,3.52,2.12,4.47,5.47,2.74,8,8.09,11.14,12.82,2.08,3.12,3.26,8.54,5.89,9.3,9,2.62,10.34,11.45,15.64,16.92,2.4,2.47,4.89,4.62,6.53,8.06,2.91,6.13-.5,11.16-1.21,16.66-3,2.48-9.67-.06-9.32,6.91q-4.41,12.63-8.8,25.26Z" transform="translate(-41.22 -150.83)"/>
    <path class="cls-4" d="M823.06,204.22l5.36.26c-16,16.9-14.65,41.1-25.4,60.21-6.16-2.48-6-10-10.92-13.55-2.72-2.89,1.71-8.35-3.7-10.27-1.42-7.32,3.56-13.43,3.88-20.42,8.87-2.85,14.6-10.87,23.21-14.13C817.93,205.4,820.53,204.91,823.06,204.22Z" transform="translate(-41.22 -150.83)"/>
    <path class="cls-6" d="M772.31,319.52c-4,.06-6.27-4.39-10.39-4q0-15.36,0-30.71c5.36-1.59,5.8-6.6,7.79-10.73,3.75-7.82,7.64-15.68,14.58-21.37a119.38,119.38,0,0,0-1.29,24.4c.69,14.39-1.32,28.16-8.38,40.93Z" transform="translate(-41.22 -150.83)"/>
    <path class="cls-6" d="M784.28,252.66c-6.94,5.69-10.83,13.55-14.58,21.37-2,4.13-2.43,9.14-7.79,10.73-1.41-21.78,3.2-41.51,19.13-57.57a24.65,24.65,0,0,1,11.24-6.74c-.32,7-5.3,13.1-3.88,20.42Z" transform="translate(-41.22 -150.83)"/>
    <path class="cls-4" d="M935.4,283.41c.71-5.5,4.12-10.53,1.21-16.66-1.64-3.44-4.13-5.59-6.53-8.06-5.3-5.47-6.61-14.3-15.64-16.92-2.63-.76-3.81-6.18-5.89-9.3-3.16-4.73-5.67-10.08-11.14-12.82-1.89-1-2.22-2.6-2.12-4.47,11.48-.35,22.77-1.62,33.29-6.71,2.8,4,8.57,5.45,9.86,10.43,2.54,9.8,11.11,15.39,15.74,23.7,2.21,4,5,7.77,9.18,10.06-2.19,10.25-8.09,18.53-14.16,26.73C944.72,281.15,940.49,283.76,935.4,283.41Z" transform="translate(-41.22 -150.83)"/>
    <path class="cls-4" d="M963.36,252.66c-4.22-2.29-7-6.1-9.18-10.06-4.63-8.31-13.2-13.9-15.74-23.7-1.29-5-7.06-6.45-9.86-10.43,2.46-2.51,6.33-3.13,8.32-6.25l14.41-8.48c8.4,6.29,12,15.89,17.07,24.54,1.47,2.54,1.86,6.13,5.88,6.32C968.91,233.29,966.47,243.1,963.36,252.66Z" transform="translate(-41.22 -150.83)"/>
    <path class="cls-4" d="M836.45,204.47l9.37,2.81c-7.81,11.55-11.67,24.76-16,37.78-2.12,6.34-7.69,10.5-10.6,16.64-2.35,4.94-4.43,10.06-6.81,15-3.58-2.66-5.13-7.35-9.35-9.37,0-.89,0-1.77,0-2.66,10.75-19.11,9.42-43.31,25.4-60.21Z" transform="translate(-41.22 -150.83)"/>
    <path class="cls-4" d="M803,264.69c0,.89,0,1.77,0,2.66-3.5,1.12-3.68,5.54-6.89,6.95-3.52-7.34-4.09-15.19-4-23.16C797,254.66,796.86,262.21,803,264.69Z" transform="translate(-41.22 -150.83)"/>
    <path class="cls-2" d="M903.64,299.43c-.91-4.55,1.81-10.4-1.36-13.46s-8.88-.72-13.48-1a45.38,45.38,0,0,1-21.24-7c-5.53-3.35-11.06-6.62-17.72-7.15,1.15-11.17,8.34-18.55,18.76-21.09,5.06-1.23,10.16-2.68,15.16-4.26,3.14-1,5.16-.24,7,2,6,7.31,12.12,14.32,17,22.69a32.83,32.83,0,0,1,4.69,15.42C912.73,291,909,297.42,903.64,299.43Z" transform="translate(-41.22 -150.83)"/>
  </g>
  <g>
    <path class="cls-10" d="M1626.49,382.15q-53.21,0-106.41-.08c-2.52,0-6,1.7-7.26-2.52,3.46-1.38,8.24,2.43,10.72-2.75a36.41,36.41,0,0,1,11.15-1.37c41.26,0,82.52-.23,123.77,1.34,6.22,2.21,12.45,2.6,18.7.12,6.64-.25,13,2.59,19.79.87,0,.72,0,1.45,0,2.18Z" transform="translate(-41.22 -150.83)"/>
    <path class="cls-10" d="M1677.16,376.89c-6.25,2.48-12.48,2.09-18.7-.12.23-4.4-1.8-7.8-5.64-9.4-4.51-1.89-5.57-5-4.91-9.29l8.57-1.46c1.47,2.35,1.91,5.43,4.8,6.79,4.68,3.34,7.78,8.6,13.24,11Z" transform="translate(-41.22 -150.83)"/>
    <path class="cls-10" d="M1508.85,379.55c0,.44,0,.88,0,1.32l-4,0-14.71,0-29.42,0-2.88-2.21c15.84-1.3,31.38-2.29,47-1.8A4.56,4.56,0,0,0,1508.85,379.55Z" transform="translate(-41.22 -150.83)"/>
    <path class="cls-10" d="M1490.11,380.83l14.71,0C1501.09,384.67,1493.8,384.66,1490.11,380.83Z" transform="translate(-41.22 -150.83)"/>
    <path class="cls-10" d="M1502.05,368.78c-3.85-4.71-4.81-10.15-4-16h8.12c.36,2.71-.61,5.76,2.57,7.63,6.63,3.92,10.49,10.38,14.79,16.43-2.48,5.18-7.26,1.37-10.72,2.75h-4a4.56,4.56,0,0,1-4-2.75Z" transform="translate(-41.22 -150.83)"/>
    <path class="cls-10" d="M1647.91,358.08c-1.93-5.17-1.61-10.72-2.74-16l9.21-1.39c2,5.15,1.13,10.67,2.09,15.95Z" transform="translate(-41.22 -150.83)"/>
    <path class="cls-10" d="M1723,228c-1.1-4.71-1.43-9.66-4.36-13.79,1-6.95-2-12.95-4.45-19.11-3.52-8.76-10.09-15.41-15.48-22.87l4.38-2.42c9.46,1.3,17.48-4.3,26.42-5.53l-.07-.07-.09,2.59-.47.71.73-.44c1,.26,2.69.23,3,.85.62,1.29-.87,1.89-1.84,2.16-7.64,2.18-6.26,6.31-3.3,11.84,6.32,11.81,9.65,24.8,13.44,37.58,1.36,4.57-.89,8.06-4.42,10.23C1731.79,232.57,1727.09,231.46,1723,228Z" transform="translate(-41.22 -150.83)"/>
    <path class="cls-10" d="M1653.61,318a76.63,76.63,0,0,0,1.06,21.38c-.1.43-.19.87-.29,1.3l-9.21,1.39c-2.38-2.33-.34-5.47-1.47-8l-2.37-14.75c4.51.36,7.57-3.52,11.78-4C1653.28,316.19,1653.44,317.09,1653.61,318Z" transform="translate(-41.22 -150.83)"/>
    <path class="cls-10" d="M1497.54,350.07a22.28,22.28,0,0,0-.07-9.34l.6-5.37c2.84-.46,5.39.86,8.07,1.33l1.1,2.64q-.52,6.71-1.06,13.41h-8.12C1497.89,351.86,1497.71,351,1497.54,350.07Z" transform="translate(-41.22 -150.83)"/>
    <path class="cls-10" d="M1729.48,164.24l.26-.53-.32.47Z" transform="translate(-41.22 -150.83)"/>
    <path class="cls-10" d="M1607.5,348.67a8.22,8.22,0,0,1,.07,1.31c-5,7.42-9.19,15.49-17,20.73-3.26,2.18-4.18,1.49-4.22-2s-.09-7-.14-10.57c.44-2.43,1.71-4,4.36-3.94,3.18,0,5.29-1.62,6.89-4.17Z" transform="translate(-41.22 -150.83)"/>
    <path class="cls-10" d="M1538.35,354.1l3.87-1.47c1.57,4.38,5.36,5,9.23,5.43.09.46.17.92.25,1.37-1.69,3.9-2.36,10.24-7,9.84s-5.31-6.85-7.32-10.9C1536.57,356.8,1537.49,355.41,1538.35,354.1Z" transform="translate(-41.22 -150.83)"/>
    <path class="cls-10" d="M1677.29,180.53l13.39-6.93,8-1.41c5.39,7.46,12,14.11,15.48,22.87,2.48,6.16,5.41,12.16,4.45,19.11-3.09-2.14-6.23-4.22-9.26-6.44-5-3.67-9.93-4.6-14.72.36.18-1.83-.72-3.24-1.5-4.85C1689.07,194.8,1683.36,187.54,1677.29,180.53Z" transform="translate(-41.22 -150.83)"/>
    <path class="cls-10" d="M1479.46,319.32c-1.89,3.47-5.33,5.33-8.09,7.89l-2.54,1.4q.12-6.67.23-13.34C1473.19,314.93,1475.44,319.38,1479.46,319.32Z" transform="translate(-41.22 -150.83)"/>
    <path class="cls-10" d="M1682.52,224.33l-1.12.07c-4-.19-4.41-3.78-5.88-6.32-5-8.65-8.66-18.25-17.07-24.55l1.6-2.3c6.2-2.83,11.66-6.86,17.24-10.71,6.07,7,11.78,14.28,15.84,22.72.78,1.61,1.68,3,1.5,4.85C1690.93,213.76,1684.52,217.4,1682.52,224.33Z" transform="translate(-41.22 -150.83)"/>
    <path class="cls-10" d="M1729.58,167l-.73.44.47-.71Z" transform="translate(-41.22 -150.83)"/>
    <path class="cls-10" d="M1656.34,279.18c-1,12.05-3.27,24-3.23,36.1-4.21.49-7.27,4.37-11.78,4a22.3,22.3,0,0,1-2.78-9.35c-1-6.81-2.08-13.61-5.33-19.82-.35-7,6.35-4.43,9.32-6.91C1647.63,283.55,1651.87,281,1656.34,279.18Z" transform="translate(-41.22 -150.83)"/>
    <path class="cls-10" d="M1498.07,335.36q-.3-4.65-.59-9.3c1.88-6.15-1.58-12.86,2-18.83,2,3,2.12,7.75,7.11,8.24q-.21,10.61-.43,21.22C1503.46,336.22,1500.91,334.9,1498.07,335.36Z" transform="translate(-41.22 -150.83)"/>
    <path class="cls-10" d="M1530.47,328.62q-6.18-12.58-12.37-25.15c5.09-8.74,5.53-17.73,1.43-27,2.37-5,4.45-10.08,6.8-15,2.92-6.14,8.48-10.3,10.6-16.64,4.36-13,8.23-26.23,16-37.78l21.45,6.23c-.85,2.71-3.43,3.29-5.53,4.44a28.09,28.09,0,0,0-13.86,17.1c-3.1,10.14-7.21,20-9.48,30.36-2.44,11.09-11.32,20.48-8.58,32.86-.53,2.68-6.13,1.88-4.21,6.33,3.66,8.51,7.19,17.08,10.77,25.62l.36,2.63C1539.11,332.32,1535.57,327.86,1530.47,328.62Z" transform="translate(-41.22 -150.83)"/>
    <path class="cls-10" d="M1606.5,330.14c2.81-3,3.55-7,4.93-10.72,4.52.8,8-3,12.41-2.78-1.4,8.28-6.88,14.6-10.55,21.79-1.78,3.49-3.85,6.83-5.79,10.24l-10,1.32C1599.91,343.12,1604.61,337.27,1606.5,330.14Z" transform="translate(-41.22 -150.83)"/>
    <path class="cls-10" d="M1530.47,328.62c5.1-.76,8.64,3.7,13.41,4,3,8.34,9.87,15.51,7.57,25.42-3.87-.47-7.66-1.06-9.23-5.44.54-1.77,4.34-3.64.84-5.31C1535,343.48,1534.3,335.07,1530.47,328.62Z" transform="translate(-41.22 -150.83)"/>
    <path class="cls-10" d="M1519.53,276.52c4.1,9.22,3.66,18.21-1.43,27l-11.54,12c-5-.49-5.06-5.21-7.1-8.24,7.21-10.36,6.31-21.65,3.82-33.13,3.22-1.41,3.4-5.83,6.9-7C1514.39,269.17,1515.94,273.86,1519.53,276.52Z" transform="translate(-41.22 -150.83)"/>
    <path class="cls-10" d="M1623.84,316.64c-4.39-.21-7.89,3.58-12.41,2.78-1.39-3-.67-6.31-1.08-9.46.14-3.58.29-7.15.43-10.73,5.4-2,9.1-8.42,8.77-13.84a32.68,32.68,0,0,0-4.69-15.42c-4.84-8.37-11-15.38-17-22.7-1.84-2.25-3.86-3-7-2-5,1.58-10.1,3-15.16,4.26-10.43,2.54-17.61,9.92-18.76,21.08-2.48.44-3,2.55-3.34,4.43-1.71,9.16-7,15.92-14.05,21.58l-2.64,1.45c-2.74-12.37,6.14-21.76,8.58-32.85,2.27-10.32,6.38-20.22,9.48-30.36a28.09,28.09,0,0,1,13.86-17.1c2.1-1.15,4.68-1.73,5.53-4.44,9.34.64,18.63,2,28,1.67-.1,1.87.23,3.52,2.13,4.47,5.46,2.74,8,8.09,11.13,12.82,2.09,3.12,3.26,8.54,5.89,9.3,9,2.62,10.34,11.45,15.64,16.91,2.4,2.48,4.9,4.63,6.53,8.07,2.92,6.13-.49,11.16-1.21,16.66-3,2.48-9.67-.06-9.32,6.91l-8.8,25.26Z" transform="translate(-41.22 -150.83)"/>
    <path class="cls-10" d="M1530.2,204l5.37.26c-16,16.9-14.66,41.1-25.4,60.21-6.17-2.48-6.05-10-10.92-13.56-2.72-2.88,1.71-8.35-3.71-10.26-1.41-7.32,3.57-13.43,3.88-20.42,8.87-2.85,14.61-10.87,23.21-14.13C1525.07,205.2,1527.67,204.71,1530.2,204Z" transform="translate(-41.22 -150.83)"/>
    <path class="cls-10" d="M1479.46,319.32c-4,.06-6.27-4.39-10.4-4.05q0-15.36,0-30.71c5.37-1.59,5.81-6.6,7.79-10.73,3.76-7.82,7.64-15.68,14.58-21.38a120.19,120.19,0,0,0-1.29,24.41c.69,14.39-1.32,28.16-8.38,40.93Z" transform="translate(-41.22 -150.83)"/>
    <path class="cls-10" d="M1491.42,252.45c-6.94,5.7-10.82,13.56-14.58,21.38-2,4.13-2.42,9.14-7.79,10.73-1.41-21.78,3.2-41.51,19.14-57.57a24.62,24.62,0,0,1,11.23-6.74c-.31,7-5.29,13.1-3.88,20.42Q1493.49,246.55,1491.42,252.45Z" transform="translate(-41.22 -150.83)"/>
    <path class="cls-10" d="M1642.54,283.21c.72-5.5,4.13-10.53,1.21-16.66-1.63-3.44-4.13-5.59-6.53-8.07-5.3-5.46-6.61-14.29-15.64-16.91-2.63-.76-3.8-6.18-5.89-9.3-3.16-4.73-5.67-10.08-11.13-12.82-1.9-.95-2.23-2.6-2.13-4.47,11.48-.35,22.77-1.62,33.3-6.71,2.79,4,8.57,5.45,9.86,10.43,2.53,9.8,11.11,15.39,15.74,23.7,2.2,4,5,7.77,9.17,10-2.19,10.26-8.09,18.54-14.16,26.73C1651.87,281,1647.63,283.55,1642.54,283.21Z" transform="translate(-41.22 -150.83)"/>
    <path class="cls-10" d="M1670.5,252.45c-4.22-2.28-7-6.09-9.17-10-4.63-8.31-13.21-13.9-15.74-23.7-1.29-5-7.07-6.46-9.86-10.43,2.45-2.51,6.32-3.13,8.32-6.25l14.4-8.49c8.41,6.3,12,15.9,17.07,24.55,1.47,2.54,1.87,6.13,5.88,6.32C1676.06,233.09,1673.61,242.9,1670.5,252.45Z" transform="translate(-41.22 -150.83)"/>
    <path class="cls-10" d="M1543.59,204.27l9.37,2.81c-7.8,11.55-11.67,24.76-16,37.78-2.12,6.34-7.68,10.5-10.6,16.64-2.35,4.94-4.43,10.06-6.8,15-3.59-2.66-5.14-7.35-9.35-9.37,0-.89,0-1.77,0-2.66,10.74-19.11,9.42-43.31,25.4-60.21Z" transform="translate(-41.22 -150.83)"/>
    <path class="cls-10" d="M1510.17,264.49c0,.89,0,1.77,0,2.66-3.5,1.12-3.68,5.54-6.9,7-3.52-7.34-4.09-15.2-4-23.16C1504.12,254.46,1504,262,1510.17,264.49Z" transform="translate(-41.22 -150.83)"/>
    <path class="cls-10" d="M1610.78,299.23c-.9-4.55,1.81-10.4-1.35-13.47s-8.89-.71-13.48-1a45.43,45.43,0,0,1-21.25-7c-5.52-3.34-11.06-6.61-17.71-7.15,1.15-11.16,8.33-18.54,18.76-21.08,5.06-1.23,10.16-2.68,15.16-4.26,3.13-1,5.15-.24,7,2,6,7.32,12.12,14.33,17,22.7a32.68,32.68,0,0,1,4.69,15.42C1619.88,290.81,1616.18,297.21,1610.78,299.23Z" transform="translate(-41.22 -150.83)"/>
  </g>
  <g>
    <path class="cls-10" d="M1959.7,382.24q-53.22,0-106.42-.08c-2.52,0-6,1.7-7.26-2.52,3.46-1.38,8.24,2.43,10.72-2.75a36.1,36.1,0,0,1,11.15-1.36c41.26,0,82.53-.24,123.77,1.34,6.22,2.2,12.46,2.59,18.71.11,6.63-.25,13,2.59,19.78.87,0,.73,0,1.45,0,2.18Z" transform="translate(-41.22 -150.83)"/>
    <path class="cls-10" d="M2010.37,377c-6.25,2.48-12.49,2.09-18.71-.11.23-4.41-1.8-7.81-5.64-9.41-4.51-1.89-5.57-5-4.91-9.29l8.57-1.46c1.47,2.35,1.91,5.44,4.8,6.79,4.68,3.35,7.78,8.6,13.24,11Z" transform="translate(-41.22 -150.83)"/>
    <path class="cls-10" d="M1842.05,379.64c0,.44,0,.88,0,1.32l-4,0-14.71,0-29.41,0-2.89-2.2c15.84-1.31,31.38-2.3,47-1.81A4.53,4.53,0,0,0,1842.05,379.64Z" transform="translate(-41.22 -150.83)"/>
    <path class="cls-10" d="M1823.31,380.92l14.71,0C1834.29,384.76,1827,384.75,1823.31,380.92Z" transform="translate(-41.22 -150.83)"/>
    <path class="cls-10" d="M1835.25,368.88c-3.84-4.72-4.81-10.16-4-16h8.11c.36,2.71-.61,5.76,2.57,7.64,6.63,3.91,10.49,10.38,14.79,16.42-2.48,5.18-7.26,1.37-10.72,2.75h-4a4.53,4.53,0,0,1-4-2.75Z" transform="translate(-41.22 -150.83)"/>
    <path class="cls-10" d="M1981.11,358.17c-1.93-5.17-1.61-10.72-2.74-16l9.21-1.39c2,5.15,1.13,10.67,2.09,15.95Z" transform="translate(-41.22 -150.83)"/>
    <path class="cls-10" d="M2056.17,228.05c-1.1-4.71-1.43-9.66-4.36-13.79,1-6.95-2-12.95-4.45-19.11-3.52-8.76-10.09-15.41-15.48-22.87l4.38-2.42c9.47,1.3,17.49-4.3,26.42-5.53l-.06-.06c0,.86-.07,1.72-.1,2.58-.16.24-.31.48-.47.71l.74-.44c1,.27,2.68.23,3,.86.62,1.28-.87,1.88-1.84,2.15-7.64,2.18-6.26,6.32-3.3,11.84,6.33,11.82,9.65,24.8,13.44,37.58,1.36,4.57-.89,8.06-4.42,10.24C2065,232.67,2060.29,231.55,2056.17,228.05Z" transform="translate(-41.22 -150.83)"/>
    <path class="cls-10" d="M1986.81,318.09a77,77,0,0,0,1.06,21.37c-.09.44-.19.87-.29,1.3l-9.21,1.39c-2.38-2.33-.34-5.47-1.46-8q-1.19-7.38-2.38-14.75c4.51.36,7.57-3.52,11.78-4C1986.48,316.28,1986.65,317.18,1986.81,318.09Z" transform="translate(-41.22 -150.83)"/>
    <path class="cls-10" d="M1830.74,350.16a22.11,22.11,0,0,0-.07-9.34l.6-5.37c2.84-.46,5.39.86,8.08,1.33l1.09,2.64q-.53,6.7-1.06,13.41h-8.11C1831.09,352,1830.91,351.05,1830.74,350.16Z" transform="translate(-41.22 -150.83)"/>
    <path class="cls-10" d="M2062.68,164.33l.27-.53-.33.47Z" transform="translate(-41.22 -150.83)"/>
    <path class="cls-10" d="M1940.7,348.76a7.31,7.31,0,0,1,.07,1.32c-5,7.41-9.19,15.48-17,20.72-3.26,2.18-4.18,1.5-4.22-2s-.09-7-.14-10.56c.44-2.44,1.71-4,4.36-3.95,3.18.05,5.3-1.62,6.89-4.16Z" transform="translate(-41.22 -150.83)"/>
    <path class="cls-10" d="M1871.55,354.19l3.87-1.46c1.57,4.37,5.36,5,9.23,5.43.09.45.17.91.26,1.36-1.7,3.9-2.37,10.24-7,9.84-4.52-.39-5.31-6.85-7.32-10.9C1869.77,356.89,1870.69,355.5,1871.55,354.19Z" transform="translate(-41.22 -150.83)"/>
    <path class="cls-10" d="M2010.49,180.62l13.39-6.93,8-1.41c5.39,7.46,12,14.11,15.48,22.87,2.48,6.16,5.41,12.16,4.45,19.11-3.09-2.14-6.23-4.22-9.26-6.43-5-3.68-9.93-4.61-14.72.36.18-1.84-.72-3.25-1.5-4.86C2022.27,194.89,2016.56,187.64,2010.49,180.62Z" transform="translate(-41.22 -150.83)"/>
    <path class="cls-10" d="M1812.66,319.42c-1.89,3.46-5.33,5.32-8.09,7.88l-2.54,1.4q.12-6.68.23-13.34C1806.39,315,1808.65,319.47,1812.66,319.42Z" transform="translate(-41.22 -150.83)"/>
    <path class="cls-10" d="M2015.72,224.42l-1.12.07c-4-.19-4.41-3.78-5.88-6.32-5-8.65-8.66-18.25-17.07-24.54l1.6-2.31c6.2-2.83,11.66-6.86,17.24-10.7,6.07,7,11.78,14.27,15.84,22.71.78,1.61,1.68,3,1.5,4.86C2024.13,213.85,2017.72,217.49,2015.72,224.42Z" transform="translate(-41.22 -150.83)"/>
    <path class="cls-10" d="M2062.79,167.12l-.74.44c.16-.23.31-.47.47-.71Z" transform="translate(-41.22 -150.83)"/>
    <path class="cls-10" d="M1989.55,279.28c-1,12-3.28,24-3.23,36.09-4.22.49-7.28,4.37-11.79,4a22.6,22.6,0,0,1-2.78-9.34c-1-6.82-2.08-13.62-5.33-19.83-.35-7,6.35-4.43,9.32-6.91C1980.84,283.65,1985.07,281,1989.55,279.28Z" transform="translate(-41.22 -150.83)"/>
    <path class="cls-10" d="M1831.27,335.45q-.3-4.65-.59-9.3c1.88-6.15-1.58-12.85,2-18.83,2,3,2.12,7.76,7.11,8.24l-.42,21.22C1836.66,336.31,1834.11,335,1831.27,335.45Z" transform="translate(-41.22 -150.83)"/>
    <path class="cls-10" d="M1863.68,328.71q-6.2-12.57-12.38-25.15c5.09-8.74,5.53-17.72,1.43-26.95,2.37-5,4.45-10.08,6.8-15,2.92-6.14,8.48-10.3,10.61-16.64,4.35-13,8.22-26.23,16-37.78l21.45,6.23c-.85,2.71-3.43,3.29-5.53,4.44a28.12,28.12,0,0,0-13.86,17.1c-3.1,10.15-7.21,20-9.48,30.36-2.44,11.09-11.32,20.48-8.58,32.86-.53,2.68-6.13,1.88-4.21,6.33,3.67,8.51,7.19,17.08,10.77,25.62l.36,2.63C1872.31,332.41,1868.78,328,1863.68,328.71Z" transform="translate(-41.22 -150.83)"/>
    <path class="cls-10" d="M1939.7,330.23c2.81-3,3.55-7,4.93-10.71,4.53.79,8-3,12.41-2.79-1.4,8.28-6.88,14.6-10.55,21.79-1.78,3.49-3.85,6.83-5.79,10.24l-10,1.33C1933.11,343.21,1937.81,337.36,1939.7,330.23Z" transform="translate(-41.22 -150.83)"/>
    <path class="cls-10" d="M1863.68,328.71c5.1-.76,8.63,3.7,13.4,4,3,8.34,9.88,15.51,7.57,25.42-3.87-.46-7.66-1.06-9.23-5.43.54-1.78,4.34-3.65.84-5.32C1868.22,343.57,1867.51,335.16,1863.68,328.71Z" transform="translate(-41.22 -150.83)"/>
    <path class="cls-10" d="M1852.73,276.61c4.1,9.23,3.66,18.21-1.43,26.95l-11.53,12c-5-.48-5.07-5.21-7.11-8.24,7.21-10.35,6.31-21.65,3.82-33.13,3.22-1.41,3.4-5.83,6.9-6.95C1847.59,269.26,1849.15,274,1852.73,276.61Z" transform="translate(-41.22 -150.83)"/>
    <path class="cls-10" d="M1957,316.73c-4.39-.21-7.88,3.58-12.41,2.79-1.39-3-.67-6.32-1.08-9.47.14-3.57.29-7.15.43-10.73,5.4-2,9.1-8.42,8.78-13.84a32.73,32.73,0,0,0-4.7-15.42c-4.84-8.37-11-15.38-17-22.69-1.84-2.26-3.86-3-7-2-5,1.58-10.1,3-15.16,4.26-10.43,2.54-17.61,9.92-18.76,21.08-2.48.44-3,2.56-3.34,4.43-1.71,9.16-7,15.93-14,21.58l-2.64,1.46c-2.74-12.38,6.14-21.77,8.58-32.86,2.27-10.32,6.38-20.21,9.48-30.36a28.12,28.12,0,0,1,13.86-17.1c2.1-1.15,4.68-1.73,5.53-4.44,9.34.64,18.63,2,28,1.67-.09,1.87.23,3.52,2.13,4.47,5.47,2.74,8,8.09,11.13,12.82,2.09,3.12,3.26,8.54,5.89,9.3,9,2.62,10.34,11.45,15.64,16.92,2.4,2.47,4.9,4.62,6.54,8.06,2.91,6.13-.5,11.16-1.22,16.66-3,2.48-9.67-.06-9.32,6.91q-4.39,12.63-8.8,25.26Z" transform="translate(-41.22 -150.83)"/>
    <path class="cls-10" d="M1863.41,204.11l5.36.26c-16,16.9-14.65,41.1-25.4,60.21-6.17-2.48-6-10-10.92-13.55-2.72-2.89,1.71-8.35-3.7-10.27-1.42-7.32,3.56-13.43,3.87-20.42,8.87-2.85,14.61-10.87,23.21-14.12C1858.27,205.29,1860.88,204.8,1863.41,204.11Z" transform="translate(-41.22 -150.83)"/>
    <path class="cls-10" d="M1812.66,319.42c-4,.05-6.27-4.4-10.4-4.06q0-15.35,0-30.71c5.37-1.59,5.81-6.59,7.79-10.73,3.76-7.82,7.64-15.68,14.58-21.37a120.1,120.1,0,0,0-1.29,24.4c.7,14.39-1.32,28.16-8.38,40.94Z" transform="translate(-41.22 -150.83)"/>
    <path class="cls-10" d="M1824.62,252.55c-6.94,5.69-10.82,13.55-14.58,21.37-2,4.14-2.42,9.14-7.79,10.73-1.41-21.78,3.2-41.51,19.14-57.57a24.62,24.62,0,0,1,11.23-6.74c-.31,7-5.29,13.1-3.88,20.42Q1826.69,246.66,1824.62,252.55Z" transform="translate(-41.22 -150.83)"/>
    <path class="cls-10" d="M1975.74,283.3c.72-5.5,4.13-10.53,1.22-16.66-1.64-3.44-4.14-5.59-6.54-8.06-5.3-5.47-6.6-14.3-15.64-16.92-2.63-.76-3.8-6.18-5.89-9.3-3.16-4.73-5.66-10.08-11.13-12.82-1.9-.95-2.22-2.6-2.13-4.47,11.48-.35,22.78-1.62,33.3-6.71,2.79,4,8.57,5.45,9.86,10.43,2.53,9.8,11.11,15.39,15.74,23.7,2.2,4,5,7.77,9.18,10.06-2.19,10.25-8.1,18.53-14.17,26.73C1985.07,281,1980.84,283.65,1975.74,283.3Z" transform="translate(-41.22 -150.83)"/>
    <path class="cls-10" d="M2003.71,252.55c-4.23-2.29-7-6.1-9.18-10.06-4.63-8.31-13.21-13.9-15.74-23.7-1.29-5-7.07-6.45-9.86-10.43,2.45-2.51,6.32-3.13,8.32-6.25l14.4-8.48c8.41,6.29,12,15.89,17.07,24.54,1.47,2.54,1.87,6.13,5.88,6.32C2009.26,233.18,2006.82,243,2003.71,252.55Z" transform="translate(-41.22 -150.83)"/>
    <path class="cls-10" d="M1876.79,204.36l9.37,2.81c-7.8,11.55-11.67,24.76-16,37.78-2.13,6.34-7.69,10.5-10.61,16.64-2.35,4.94-4.43,10.06-6.8,15-3.58-2.66-5.14-7.35-9.35-9.37,0-.89,0-1.77,0-2.66,10.75-19.11,9.42-43.31,25.4-60.21Z" transform="translate(-41.22 -150.83)"/>
    <path class="cls-10" d="M1843.37,264.58c0,.89,0,1.77,0,2.66-3.5,1.12-3.68,5.54-6.9,6.95-3.52-7.34-4.09-15.19-4-23.16C1837.32,254.55,1837.2,262.1,1843.37,264.58Z" transform="translate(-41.22 -150.83)"/>
    <path class="cls-10" d="M1944,299.32c-.9-4.55,1.81-10.4-1.35-13.46s-8.89-.72-13.48-1c-7.76-.43-14.71-3.07-21.25-7-5.52-3.35-11.06-6.62-17.71-7.15,1.15-11.17,8.33-18.55,18.76-21.09,5.06-1.23,10.16-2.68,15.16-4.26,3.13-1,5.15-.24,7,2,6,7.31,12.12,14.32,17,22.69a32.73,32.73,0,0,1,4.7,15.42C1953.08,290.9,1949.38,297.31,1944,299.32Z" transform="translate(-41.22 -150.83)"/>
  </g>
  <g>
    <path class="cls-10" d="M2322.4,382.77c-35.47,0-70.94,0-106.41-.09-2.52,0-6,1.7-7.26-2.52,3.45-1.38,8.24,2.44,10.72-2.74a36.35,36.35,0,0,1,11.14-1.37c41.27,0,82.53-.24,123.78,1.34,6.22,2.21,12.45,2.59,18.7.11,6.64-.25,13,2.59,19.79.87,0,.73,0,1.45,0,2.18Z" transform="translate(-41.22 -150.83)"/>
    <path class="cls-10" d="M2373.07,377.5c-6.25,2.48-12.48,2.1-18.7-.11.23-4.41-1.8-7.8-5.65-9.41-4.5-1.88-5.57-5-4.91-9.29l8.57-1.45c1.48,2.34,1.92,5.43,4.8,6.78,4.69,3.35,7.78,8.61,13.24,11Z" transform="translate(-41.22 -150.83)"/>
    <path class="cls-10" d="M2204.76,380.17c0,.43,0,.87,0,1.31h-4l-14.71,0-29.42,0-2.89-2.2c15.84-1.31,31.39-2.29,47-1.81A4.57,4.57,0,0,0,2204.76,380.17Z" transform="translate(-41.22 -150.83)"/>
    <path class="cls-10" d="M2186,381.44l14.71,0C2197,385.29,2189.7,385.27,2186,381.44Z" transform="translate(-41.22 -150.83)"/>
    <path class="cls-10" d="M2198,369.4c-3.85-4.72-4.81-10.15-4-16h8.12c.36,2.7-.61,5.75,2.57,7.63,6.63,3.91,10.49,10.38,14.79,16.43-2.48,5.18-7.27,1.36-10.72,2.74h-4a4.54,4.54,0,0,1-4.05-2.75Q2199.35,373.41,2198,369.4Z" transform="translate(-41.22 -150.83)"/>
    <path class="cls-10" d="M2343.81,358.69c-1.93-5.16-1.61-10.72-2.73-16l9.21-1.39c2,5.15,1.12,10.67,2.09,16Z" transform="translate(-41.22 -150.83)"/>
    <path class="cls-10" d="M2418.88,228.57c-1.1-4.71-1.44-9.66-4.37-13.79,1-6.94-2-12.95-4.44-19.11-3.52-8.76-10.09-15.4-15.48-22.87l4.37-2.42c9.47,1.3,17.49-4.3,26.43-5.53l-.07-.06c0,.86-.06,1.72-.1,2.59l-.47.71.74-.45c1,.27,2.68.24,3,.86.63,1.28-.86,1.88-1.83,2.16-7.64,2.18-6.27,6.31-3.31,11.83,6.33,11.82,9.66,24.81,13.45,37.58,1.36,4.57-.89,8.06-4.42,10.24C2427.69,233.19,2423,232.07,2418.88,228.57Z" transform="translate(-41.22 -150.83)"/>
    <path class="cls-10" d="M2349.52,318.61a77,77,0,0,0,1.05,21.38c-.09.43-.18.86-.28,1.29l-9.21,1.39c-2.39-2.33-.34-5.46-1.47-8l-2.37-14.75c4.5.36,7.57-3.52,11.78-4C2349.19,316.8,2349.35,317.7,2349.52,318.61Z" transform="translate(-41.22 -150.83)"/>
    <path class="cls-10" d="M2193.44,350.68a22.07,22.07,0,0,0-.06-9.33l.6-5.38c2.84-.45,5.38.86,8.07,1.33l1.1,2.64q-.54,6.71-1.06,13.42H2194C2193.8,352.47,2193.62,351.58,2193.44,350.68Z" transform="translate(-41.22 -150.83)"/>
    <path class="cls-10" d="M2425.39,164.85l.26-.53-.33.47Z" transform="translate(-41.22 -150.83)"/>
    <path class="cls-10" d="M2303.4,349.28a6.5,6.5,0,0,1,.07,1.32c-5,7.41-9.19,15.48-17,20.72-3.25,2.19-4.17,1.5-4.21-2s-.09-7-.14-10.56c.43-2.44,1.71-4,4.35-4,3.19.05,5.3-1.61,6.9-4.16Z" transform="translate(-41.22 -150.83)"/>
    <path class="cls-10" d="M2234.25,354.72l3.88-1.47c1.57,4.37,5.36,5,9.23,5.43.08.46.17.91.25,1.37-1.69,3.89-2.37,10.23-7,9.83s-5.31-6.85-7.32-10.9C2232.48,357.41,2233.4,356,2234.25,354.72Z" transform="translate(-41.22 -150.83)"/>
    <path class="cls-10" d="M2373.2,181.14l13.39-6.93,8-1.41c5.39,7.47,12,14.11,15.48,22.87,2.48,6.16,5.41,12.17,4.44,19.11-3.09-2.14-6.22-4.22-9.26-6.43-5-3.68-9.92-4.61-14.71.36.17-1.83-.73-3.25-1.5-4.86C2385,195.41,2379.27,188.16,2373.2,181.14Z" transform="translate(-41.22 -150.83)"/>
    <path class="cls-10" d="M2175.37,319.94c-1.89,3.46-5.33,5.32-8.1,7.89l-2.53,1.39q.12-6.66.23-13.34C2169.09,315.54,2171.35,320,2175.37,319.94Z" transform="translate(-41.22 -150.83)"/>
    <path class="cls-10" d="M2378.42,224.94l-1.11.07c-4-.19-4.41-3.78-5.88-6.31-5-8.65-8.67-18.26-17.07-24.55l1.59-2.31c6.21-2.83,11.67-6.86,17.25-10.7,6.07,7,11.77,14.27,15.84,22.71.77,1.61,1.67,3,1.5,4.86C2386.84,214.37,2380.43,218,2378.42,224.94Z" transform="translate(-41.22 -150.83)"/>
    <path class="cls-10" d="M2425.49,167.64l-.74.45.47-.71Z" transform="translate(-41.22 -150.83)"/>
    <path class="cls-10" d="M2352.25,279.8c-1,12-3.28,24-3.23,36.1-4.21.48-7.28,4.36-11.78,4a22.26,22.26,0,0,1-2.78-9.34c-1-6.82-2.08-13.62-5.33-19.83-.35-7,6.34-4.43,9.32-6.91C2343.54,284.17,2347.77,281.57,2352.25,279.8Z" transform="translate(-41.22 -150.83)"/>
    <path class="cls-10" d="M2194,336q-.3-4.64-.59-9.29c1.88-6.15-1.58-12.86,2-18.83,2,3,2.12,7.75,7.12,8.23q-.22,10.62-.43,21.22C2199.36,336.83,2196.82,335.52,2194,336Z" transform="translate(-41.22 -150.83)"/>
    <path class="cls-10" d="M2226.38,329.23,2214,304.09c5.09-8.74,5.53-17.73,1.42-27,2.38-5,4.46-10.08,6.81-15,2.91-6.14,8.48-10.29,10.6-16.63,4.36-13,8.22-26.24,16-37.79l21.45,6.23c-.85,2.71-3.44,3.29-5.53,4.45a28.11,28.11,0,0,0-13.87,17.1c-3.1,10.14-7.21,20-9.48,30.35-2.44,11.09-11.31,20.48-8.57,32.86-.54,2.68-6.14,1.88-4.22,6.34,3.67,8.5,7.2,17.07,10.78,25.61l.36,2.64C2235,332.93,2231.48,328.48,2226.38,329.23Z" transform="translate(-41.22 -150.83)"/>
    <path class="cls-10" d="M2302.41,330.76c2.81-3,3.54-7,4.93-10.72,4.52.79,8-3,12.4-2.79-1.39,8.29-6.88,14.6-10.54,21.79-1.78,3.49-3.85,6.84-5.79,10.24l-10,1.33C2295.82,343.73,2300.52,337.88,2302.41,330.76Z" transform="translate(-41.22 -150.83)"/>
    <path class="cls-10" d="M2226.38,329.23c5.1-.75,8.63,3.7,13.41,4,3,8.33,9.87,15.5,7.57,25.41-3.87-.46-7.66-1.06-9.23-5.43.54-1.77,4.34-3.64.84-5.31C2230.92,344.09,2230.21,335.69,2226.38,329.23Z" transform="translate(-41.22 -150.83)"/>
    <path class="cls-10" d="M2215.43,277.13c4.11,9.23,3.67,18.22-1.42,27l-11.54,12c-5-.48-5.06-5.21-7.11-8.23,7.21-10.36,6.32-21.66,3.83-33.14,3.22-1.41,3.39-5.82,6.89-6.95C2210.3,269.79,2211.85,274.47,2215.43,277.13Z" transform="translate(-41.22 -150.83)"/>
    <path class="cls-10" d="M2319.74,317.25c-4.39-.21-7.88,3.58-12.4,2.79-1.39-3-.67-6.32-1.09-9.47.15-3.57.29-7.15.44-10.72,5.39-2,9.1-8.43,8.77-13.84a32.83,32.83,0,0,0-4.69-15.43c-4.84-8.36-11-15.38-17-22.69-1.84-2.25-3.86-3-7-2-5,1.57-10.09,3-15.16,4.26-10.42,2.53-17.6,9.91-18.76,21.07-2.47.44-3,2.56-3.33,4.43-1.72,9.16-7,15.93-14.06,21.59l-2.64,1.45c-2.73-12.38,6.14-21.77,8.58-32.86,2.27-10.31,6.38-20.21,9.48-30.35a28.11,28.11,0,0,1,13.87-17.1c2.09-1.16,4.68-1.74,5.53-4.45,9.33.64,18.63,2,28,1.67-.1,1.88.23,3.52,2.12,4.47,5.47,2.74,8,8.1,11.14,12.83,2.09,3.12,3.26,8.54,5.89,9.3,9,2.61,10.34,11.44,15.64,16.91,2.4,2.47,4.9,4.62,6.53,8.07,2.91,6.12-.49,11.16-1.21,16.65-3,2.48-9.67-.05-9.32,6.91q-4.4,12.63-8.8,25.27Z" transform="translate(-41.22 -150.83)"/>
    <path class="cls-10" d="M2226.11,204.63l5.37.26c-16,16.9-14.66,41.11-25.41,60.21-6.16-2.48-6-10-10.92-13.55-2.72-2.89,1.71-8.35-3.7-10.27-1.42-7.32,3.56-13.43,3.88-20.42,8.87-2.85,14.6-10.86,23.21-14.12C2221,205.81,2223.58,205.32,2226.11,204.63Z" transform="translate(-41.22 -150.83)"/>
    <path class="cls-10" d="M2175.37,319.94c-4,.05-6.28-4.4-10.4-4.06q0-15.35,0-30.7c5.36-1.6,5.8-6.6,7.79-10.74,3.76-7.82,7.64-15.67,14.58-21.37a119.42,119.42,0,0,0-1.29,24.4c.69,14.39-1.32,28.17-8.38,40.94Z" transform="translate(-41.22 -150.83)"/>
    <path class="cls-10" d="M2187.33,253.07c-6.94,5.7-10.82,13.55-14.58,21.37-2,4.14-2.43,9.14-7.79,10.74-1.41-21.78,3.2-41.52,19.13-57.58a24.74,24.74,0,0,1,11.24-6.74c-.32,7-5.3,13.1-3.88,20.42Z" transform="translate(-41.22 -150.83)"/>
    <path class="cls-10" d="M2338.45,283.82c.72-5.49,4.12-10.53,1.21-16.65-1.63-3.45-4.13-5.6-6.53-8.07-5.3-5.47-6.61-14.3-15.64-16.91-2.63-.76-3.8-6.18-5.89-9.3-3.16-4.73-5.67-10.09-11.14-12.83-1.89-.95-2.22-2.59-2.12-4.47,11.48-.34,22.77-1.61,33.3-6.71,2.79,4,8.57,5.45,9.85,10.44,2.54,9.8,11.11,15.38,15.75,23.69,2.2,4,5,7.77,9.17,10.06-2.19,10.25-8.09,18.53-14.16,26.73C2347.77,281.57,2343.54,284.17,2338.45,283.82Z" transform="translate(-41.22 -150.83)"/>
    <path class="cls-10" d="M2366.41,253.07c-4.22-2.29-7-6.1-9.17-10.06-4.64-8.31-13.21-13.89-15.75-23.69-1.28-5-7.06-6.46-9.85-10.44,2.45-2.51,6.32-3.13,8.32-6.24l14.4-8.49c8.4,6.29,12,15.9,17.07,24.55,1.47,2.53,1.86,6.12,5.88,6.31C2372,233.7,2369.52,243.51,2366.41,253.07Z" transform="translate(-41.22 -150.83)"/>
    <path class="cls-10" d="M2239.5,204.88l9.37,2.81c-7.81,11.55-11.67,24.77-16,37.79-2.12,6.34-7.69,10.49-10.6,16.63-2.35,4.94-4.43,10.06-6.81,15-3.58-2.66-5.13-7.34-9.35-9.37,0-.88,0-1.77,0-2.66,10.75-19.1,9.42-43.31,25.41-60.21Z" transform="translate(-41.22 -150.83)"/>
    <path class="cls-10" d="M2206.07,265.1c0,.89,0,1.78,0,2.66-3.5,1.13-3.67,5.54-6.89,6.95-3.52-7.34-4.09-15.19-4-23.16C2200,255.07,2199.91,262.62,2206.07,265.1Z" transform="translate(-41.22 -150.83)"/>
    <path class="cls-10" d="M2306.69,299.85c-.91-4.56,1.81-10.41-1.35-13.47s-8.89-.72-13.49-1c-7.75-.43-14.7-3.07-21.24-7-5.52-3.35-11.06-6.62-17.72-7.15,1.16-11.17,8.34-18.55,18.76-21.08,5.07-1.24,10.16-2.69,15.16-4.26,3.14-1,5.16-.24,7,2,6,7.31,12.12,14.33,17,22.69a32.83,32.83,0,0,1,4.69,15.43C2315.79,291.42,2312.08,297.83,2306.69,299.85Z" transform="translate(-41.22 -150.83)"/>
  </g>
  <g>
    <path class="cls-10" d="M2679,380.61c-35.48,0-70.95,0-106.42-.09-2.52,0-6,1.71-7.26-2.52,3.46-1.37,8.24,2.44,10.72-2.74a36.41,36.41,0,0,1,11.15-1.37c41.26,0,82.52-.23,123.77,1.34,6.22,2.21,12.45,2.6,18.7.11,6.64-.24,13,2.59,19.79.87,0,.73,0,1.46,0,2.18Z" transform="translate(-41.22 -150.83)"/>
    <path class="cls-10" d="M2729.63,375.34c-6.25,2.49-12.48,2.1-18.7-.11.23-4.4-1.8-7.8-5.64-9.41-4.51-1.88-5.57-5-4.91-9.28l8.57-1.46c1.47,2.35,1.91,5.43,4.8,6.78,4.68,3.35,7.78,8.61,13.24,11Z" transform="translate(-41.22 -150.83)"/>
    <path class="cls-10" d="M2561.32,378c0,.44,0,.88,0,1.32l-4,0-14.71,0-29.42,0-2.88-2.21c15.84-1.31,31.38-2.29,47-1.8A4.56,4.56,0,0,0,2561.32,378Z" transform="translate(-41.22 -150.83)"/>
    <path class="cls-10" d="M2542.58,379.29l14.71,0C2553.56,383.13,2546.27,383.12,2542.58,379.29Z" transform="translate(-41.22 -150.83)"/>
    <path class="cls-10" d="M2554.52,367.24c-3.85-4.72-4.81-10.15-4-16h8.12c.36,2.7-.61,5.75,2.57,7.63,6.63,3.91,10.49,10.38,14.79,16.43-2.48,5.18-7.26,1.37-10.72,2.74h-4a4.56,4.56,0,0,1-4-2.75Z" transform="translate(-41.22 -150.83)"/>
    <path class="cls-10" d="M2700.38,356.54c-1.93-5.17-1.61-10.72-2.74-16l9.21-1.38c2,5.14,1.13,10.67,2.09,15.95Z" transform="translate(-41.22 -150.83)"/>
    <path class="cls-10" d="M2775.44,226.41c-1.1-4.7-1.43-9.65-4.36-13.79,1-6.94-2-13-4.45-19.1-3.52-8.76-10.09-15.41-15.48-22.88l4.38-2.42c9.46,1.31,17.48-4.29,26.42-5.52l-.07-.07-.09,2.59c-.16.24-.32.47-.47.71l.74-.44c1,.26,2.68.23,3,.85.62,1.29-.87,1.88-1.84,2.16-7.64,2.18-6.26,6.31-3.3,11.84,6.32,11.81,9.65,24.8,13.44,37.58,1.36,4.57-.89,8.05-4.42,10.23C2784.26,231,2779.56,229.92,2775.44,226.41Z" transform="translate(-41.22 -150.83)"/>
    <path class="cls-10" d="M2706.08,316.45a76.65,76.65,0,0,0,1.06,21.38c-.1.43-.19.86-.29,1.3l-9.21,1.38c-2.38-2.32-.34-5.46-1.47-8l-2.37-14.75c4.51.36,7.57-3.51,11.78-4C2705.75,314.64,2705.91,315.55,2706.08,316.45Z" transform="translate(-41.22 -150.83)"/>
    <path class="cls-10" d="M2550,348.53a22.28,22.28,0,0,0-.07-9.34l.6-5.37c2.84-.46,5.39.85,8.07,1.33l1.1,2.64q-.52,6.7-1.06,13.41h-8.12C2550.36,350.31,2550.18,349.42,2550,348.53Z" transform="translate(-41.22 -150.83)"/>
    <path class="cls-10" d="M2782,162.7l.26-.53-.32.46Z" transform="translate(-41.22 -150.83)"/>
    <path class="cls-10" d="M2660,347.13a8.16,8.16,0,0,1,.07,1.31c-5,7.41-9.19,15.48-17,20.72-3.26,2.19-4.18,1.5-4.22-2s-.09-7.05-.14-10.57c.44-2.43,1.71-4,4.36-3.94,3.18,0,5.29-1.62,6.89-4.17Z" transform="translate(-41.22 -150.83)"/>
    <path class="cls-10" d="M2590.82,352.56l3.87-1.47c1.57,4.38,5.36,5,9.23,5.43.09.46.17.91.25,1.37-1.69,3.89-2.36,10.24-7,9.84-4.52-.39-5.31-6.86-7.32-10.9C2589,355.25,2590,353.86,2590.82,352.56Z" transform="translate(-41.22 -150.83)"/>
    <path class="cls-10" d="M2729.76,179l13.39-6.93,8-1.41c5.39,7.47,12,14.12,15.48,22.88,2.48,6.15,5.41,12.16,4.45,19.1-3.09-2.13-6.23-4.21-9.26-6.43-5-3.67-9.93-4.6-14.72.36.18-1.83-.72-3.25-1.5-4.85C2741.54,193.26,2735.83,186,2729.76,179Z" transform="translate(-41.22 -150.83)"/>
    <path class="cls-10" d="M2531.93,317.78c-1.89,3.46-5.33,5.33-8.09,7.89l-2.54,1.39q.12-6.66.23-13.33C2525.66,313.38,2527.91,317.83,2531.93,317.78Z" transform="translate(-41.22 -150.83)"/>
    <path class="cls-10" d="M2735,222.78l-1.12.08c-4-.19-4.41-3.79-5.88-6.32-5-8.65-8.66-18.25-17.07-24.55l1.6-2.3c6.2-2.84,11.66-6.87,17.24-10.71,6.07,7,11.78,14.28,15.84,22.72.78,1.6,1.68,3,1.5,4.85C2743.4,212.21,2737,215.85,2735,222.78Z" transform="translate(-41.22 -150.83)"/>
    <path class="cls-10" d="M2782.06,165.49l-.74.44c.15-.24.31-.47.47-.71Z" transform="translate(-41.22 -150.83)"/>
    <path class="cls-10" d="M2708.81,277.64c-1,12-3.27,24-3.23,36.1-4.21.49-7.27,4.36-11.78,4a22.26,22.26,0,0,1-2.78-9.34c-1-6.82-2.08-13.61-5.33-19.83-.35-7,6.35-4.42,9.32-6.91C2700.1,282,2704.34,279.41,2708.81,277.64Z" transform="translate(-41.22 -150.83)"/>
    <path class="cls-10" d="M2550.54,333.82q-.3-4.65-.59-9.3c1.88-6.15-1.58-12.86,2-18.83,2,3,2.12,7.75,7.11,8.24q-.21,10.6-.43,21.22C2555.93,334.67,2553.38,333.36,2550.54,333.82Z" transform="translate(-41.22 -150.83)"/>
    <path class="cls-10" d="M2582.94,327.07l-12.37-25.14c5.09-8.74,5.53-17.73,1.43-27,2.37-5,4.45-10.07,6.8-15,2.92-6.14,8.48-10.3,10.6-16.64,4.36-13,8.23-26.23,16-37.79l21.45,6.23c-.85,2.72-3.43,3.3-5.53,4.45a28.09,28.09,0,0,0-13.86,17.1c-3.1,10.14-7.21,20-9.48,30.35-2.44,11.09-11.32,20.49-8.58,32.86-.53,2.68-6.13,1.89-4.21,6.34,3.66,8.51,7.19,17.07,10.77,25.62l.36,2.63C2591.58,330.77,2588,326.32,2582.94,327.07Z" transform="translate(-41.22 -150.83)"/>
    <path class="cls-10" d="M2659,328.6c2.81-3,3.55-7,4.93-10.72,4.52.8,8-3,12.41-2.79-1.4,8.29-6.88,14.61-10.55,21.8-1.78,3.49-3.85,6.83-5.79,10.24l-10,1.32C2652.38,341.57,2657.08,335.73,2659,328.6Z" transform="translate(-41.22 -150.83)"/>
    <path class="cls-10" d="M2582.94,327.07c5.1-.75,8.64,3.7,13.41,4,3,8.34,9.87,15.5,7.57,25.41-3.87-.46-7.66-1-9.23-5.43.54-1.77,4.34-3.64.84-5.31C2587.48,341.93,2586.77,333.53,2582.94,327.07Z" transform="translate(-41.22 -150.83)"/>
    <path class="cls-10" d="M2572,275c4.1,9.23,3.66,18.22-1.43,27l-11.54,12c-5-.49-5.06-5.22-7.1-8.24,7.21-10.36,6.31-21.65,3.82-33.13,3.22-1.41,3.4-5.83,6.9-6.95C2566.86,267.63,2568.41,272.32,2572,275Z" transform="translate(-41.22 -150.83)"/>
    <path class="cls-10" d="M2676.31,315.09c-4.39-.2-7.89,3.59-12.41,2.79-1.39-3-.67-6.32-1.08-9.46.14-3.58.29-7.16.43-10.73,5.4-2,9.1-8.43,8.77-13.84a32.72,32.72,0,0,0-4.69-15.43c-4.84-8.36-11-15.37-17-22.69-1.84-2.25-3.86-3-7-2-5,1.58-10.1,3-15.16,4.26-10.43,2.53-17.61,9.92-18.76,21.08-2.48.44-3,2.55-3.34,4.42-1.71,9.17-7,15.93-14,21.59l-2.64,1.45c-2.74-12.37,6.14-21.77,8.58-32.86,2.27-10.31,6.38-20.21,9.48-30.35a28.09,28.09,0,0,1,13.86-17.1c2.1-1.15,4.68-1.73,5.53-4.44,9.34.63,18.63,2,28,1.67-.1,1.87.23,3.52,2.13,4.47,5.46,2.73,8,8.09,11.13,12.82,2.09,3.12,3.26,8.54,5.89,9.3,9,2.61,10.34,11.45,15.64,16.91,2.4,2.48,4.9,4.63,6.53,8.07,2.92,6.13-.49,11.16-1.21,16.65-3,2.49-9.67-.05-9.32,6.91l-8.8,25.27Z" transform="translate(-41.22 -150.83)"/>
    <path class="cls-10" d="M2582.67,202.48l5.37.26c-16,16.9-14.66,41.1-25.4,60.21-6.17-2.49-6-10-10.92-13.56-2.72-2.88,1.71-8.35-3.71-10.26-1.41-7.33,3.57-13.43,3.88-20.42,8.87-2.86,14.61-10.87,23.21-14.13C2577.54,203.66,2580.14,203.17,2582.67,202.48Z" transform="translate(-41.22 -150.83)"/>
    <path class="cls-10" d="M2531.93,317.78c-4,.05-6.27-4.4-10.4-4q0-15.36,0-30.71c5.37-1.6,5.81-6.6,7.79-10.74,3.76-7.82,7.64-15.67,14.58-21.37a120.19,120.19,0,0,0-1.29,24.41c.69,14.39-1.32,28.16-8.38,40.93Z" transform="translate(-41.22 -150.83)"/>
    <path class="cls-10" d="M2543.89,250.91c-6.94,5.7-10.82,13.55-14.58,21.37-2,4.14-2.42,9.14-7.79,10.74-1.41-21.78,3.2-41.51,19.14-57.58a24.6,24.6,0,0,1,11.23-6.73c-.31,7-5.29,13.09-3.88,20.41Q2546,245,2543.89,250.91Z" transform="translate(-41.22 -150.83)"/>
    <path class="cls-10" d="M2695,281.66c.72-5.49,4.13-10.52,1.21-16.65-1.63-3.44-4.13-5.59-6.53-8.07-5.3-5.46-6.61-14.3-15.64-16.91-2.63-.76-3.8-6.18-5.89-9.3-3.16-4.73-5.67-10.09-11.13-12.82-1.9-.95-2.23-2.6-2.13-4.47,11.48-.35,22.77-1.62,33.3-6.71,2.79,4,8.57,5.44,9.86,10.43,2.53,9.8,11.11,15.38,15.74,23.7,2.2,3.95,4.95,7.77,9.17,10-2.19,10.25-8.09,18.54-14.16,26.73C2704.34,279.41,2700.1,282,2695,281.66Z" transform="translate(-41.22 -150.83)"/>
    <path class="cls-10" d="M2723,250.91c-4.22-2.28-7-6.1-9.17-10-4.63-8.32-13.21-13.9-15.74-23.7-1.29-5-7.07-6.46-9.86-10.43,2.45-2.51,6.32-3.14,8.32-6.25l14.4-8.49c8.41,6.3,12,15.9,17.07,24.55,1.47,2.53,1.87,6.13,5.88,6.32C2728.53,231.54,2726.08,241.36,2723,250.91Z" transform="translate(-41.22 -150.83)"/>
    <path class="cls-10" d="M2596.06,202.73l9.37,2.8c-7.8,11.56-11.67,24.77-16,37.79-2.12,6.34-7.68,10.5-10.6,16.64-2.35,4.94-4.43,10.06-6.8,15-3.59-2.65-5.14-7.34-9.35-9.36,0-.89,0-1.78,0-2.66,10.74-19.11,9.42-43.31,25.4-60.21Z" transform="translate(-41.22 -150.83)"/>
    <path class="cls-10" d="M2562.64,263c0,.88,0,1.77,0,2.66-3.5,1.12-3.68,5.54-6.9,6.95-3.52-7.34-4.09-15.2-4-23.17C2556.59,252.91,2556.47,260.46,2562.64,263Z" transform="translate(-41.22 -150.83)"/>
    <path class="cls-10" d="M2663.25,297.69c-.9-4.55,1.81-10.41-1.35-13.47s-8.89-.71-13.48-1a45.54,45.54,0,0,1-21.25-7c-5.52-3.35-11.06-6.62-17.71-7.15,1.15-11.16,8.33-18.55,18.76-21.08,5.06-1.23,10.16-2.68,15.16-4.26,3.13-1,5.15-.24,7,2,6,7.32,12.12,14.33,17,22.69a32.72,32.72,0,0,1,4.69,15.43C2672.35,289.26,2668.65,295.67,2663.25,297.69Z" transform="translate(-41.22 -150.83)"/>
  </g>
  <path class="cls-11" d="M650.63,150.83h11A8.14,8.14,0,0,1,650.63,150.83Z" transform="translate(-41.22 -150.83)"/>
  <path class="cls-11" d="M408.63,150.83h11A8.14,8.14,0,0,1,408.63,150.83Z" transform="translate(-41.22 -150.83)"/>
  <path class="cls-1" d="M291.62,153.77l2.08-2c6.6-.59,13,1.34,19.63,1.54C306.07,153,298.94,156.79,291.62,153.77Z" transform="translate(-41.22 -150.83)"/>
  <g>
    <path class="cls-12" d="M674.41,365.44" transform="translate(-41.22 -150.83)"/>
    <g>
      <path class="cls-1" d="M593.78,379.82c-6.07,2.1-12.45,2.37-18.72,2.56-12.4.38-24.83.13-37.24.13h-68c-4.52-.48-9.51,1.47-13.32-2.62l.27-2.77c44.77-2.47,89.55-1.53,134.32.07Z" transform="translate(-41.22 -150.83)"/>
      <path class="cls-1" d="M438.83,377.08c.13.93.25,1.86.37,2.79-3.41,3.42-7.52,1.21-11.25,1.21-10.26,0-20.58.95-30.75-1.3-.17,0-.44-.17-.46-.29-.2-1,.63-.82,1.17-1,11-1.82,22-1.19,33-1.32Z" transform="translate(-41.22 -150.83)"/>
      <path class="cls-1" d="M607.08,379.78c.92-.88,1.84-1.76,2.77-2.63,8.8-.79,17.38,1.78,26.16,2.06C626.33,378.75,616.84,383.79,607.08,379.78Z" transform="translate(-41.22 -150.83)"/>
      <path class="cls-13" d="M549.58,339.76c0,.44,0,.89,0,1.34-3,3.82-6.06,7.53-8.78,11.51a19.24,19.24,0,0,1-7.78,6.93c-3.16,1.48-6.62,4.49-9.81,2.45s1-5.56.17-8.5c1.84-2.88,1.56-7.69,7.8-5.86,3.62,1.06,2.5-5,5.29-6.46,2.38,2.69,4.39.28,6.43-.55C545.08,339.73,547.07,338,549.58,339.76Z" transform="translate(-41.22 -150.83)"/>
      <path class="cls-13" d="M488.68,351.92l0,5.29a32.84,32.84,0,0,1-1.75,5.57c-1.69,3.23-3.93,3.3-5.91.25-1.78-2.73-3.28-5.65-4.9-8.48.77-1.94,1.34-4,3.09-5.37C481.7,352.31,485.28,351.81,488.68,351.92Z" transform="translate(-41.22 -150.83)"/>
      <path class="cls-4" d="M471.28,331.84l-2.58-5.33c4.55-.34,7.23,5,12,4l2.49,2.71c1.79,4,3.53,8,5.38,11.94,1.07,2.28,1.9,4.49.11,6.78-3.4-.11-7,.39-9.5-2.74,2.35-3.26.27-5.73-1.48-8.24C475.57,337.9,473.42,334.87,471.28,331.84Z" transform="translate(-41.22 -150.83)"/>
      <path class="cls-4" d="M548.24,342.42c-2.5-1.78-4.5,0-6.68.87s-4.06,3.24-6.43.54c4.24-6.16,8.08-12.64,12.86-18.35,3-3.53,3.38-6.94,2.76-11l.49.09c5,.37,8.43-4.76,13.58-3.88C564.84,324.17,555.05,332.52,548.24,342.42Z" transform="translate(-41.22 -150.83)"/>
      <path class="cls-14" d="M565.79,382.5q-53,0-106-.08c-2.51,0-6,1.69-7.23-2.51,3.44-1.38,8.21,2.42,10.68-2.74a35.85,35.85,0,0,1,11.11-1.36c41.12,0,82.24-.24,123.34,1.33,6.2,2.2,12.41,2.59,18.64.11,6.61-.24,13,2.58,19.71.87,0,.73,0,1.45,0,2.18Z" transform="translate(-41.22 -150.83)"/>
      <path class="cls-13" d="M616.29,377.25c-6.23,2.48-12.44,2.09-18.64-.11.23-4.39-1.8-7.77-5.63-9.37-4.48-1.88-5.55-5-4.89-9.26l8.54-1.45c1.47,2.34,1.91,5.41,4.79,6.76,4.66,3.34,7.75,8.58,13.19,11Z" transform="translate(-41.22 -150.83)"/>
      <path class="cls-14" d="M448.56,379.91c0,.44,0,.88,0,1.31h-4l-14.67,0-29.31,0L397.7,379c15.78-1.31,31.27-2.29,46.83-1.8A4.55,4.55,0,0,0,448.56,379.91Z" transform="translate(-41.22 -150.83)"/>
      <path class="cls-11" d="M429.88,381.19l14.67,0C440.82,385,433.56,385,429.88,381.19Z" transform="translate(-41.22 -150.83)"/>
      <path class="cls-13" d="M441.79,369.18c-3.84-4.7-4.8-10.12-4-16h8.09c.36,2.7-.61,5.74,2.56,7.61,6.61,3.9,10.46,10.34,14.74,16.37-2.47,5.16-7.24,1.36-10.68,2.74h-4a4.55,4.55,0,0,1-4-2.74Z" transform="translate(-41.22 -150.83)"/>
      <path class="cls-4" d="M587.13,358.51c-1.92-5.15-1.6-10.68-2.73-16l9.18-1.39c2,5.13,1.12,10.64,2.09,15.9Z" transform="translate(-41.22 -150.83)"/>
      <path class="cls-4" d="M661.93,228.85c-1.09-4.7-1.43-9.63-4.34-13.75.95-6.92-2-12.9-4.43-19-3.51-8.73-10.06-15.35-15.43-22.79l4.36-2.41c9.43,1.3,17.43-4.28,26.33-5.51l-.06-.06c0,.85-.07,1.71-.1,2.57-.16.24-.31.48-.47.71l.73-.44c1,.26,2.68.23,3,.85.62,1.28-.87,1.88-1.83,2.15-7.62,2.17-6.25,6.29-3.3,11.8,6.31,11.77,9.62,24.72,13.4,37.45,1.35,4.55-.88,8-4.4,10.2C670.72,233.45,666,232.33,661.93,228.85Z" transform="translate(-41.22 -150.83)"/>
      <path class="cls-4" d="M592.81,318.57a76.86,76.86,0,0,0,1.06,21.3c-.09.43-.19.86-.29,1.29l-9.18,1.39c-2.37-2.32-.34-5.45-1.46-8q-1.17-7.35-2.36-14.69c4.49.36,7.54-3.51,11.74-4C592.48,316.77,592.65,317.67,592.81,318.57Z" transform="translate(-41.22 -150.83)"/>
      <path class="cls-4" d="M437.29,350.53a22.09,22.09,0,0,0-.07-9.3l.6-5.36c2.83-.45,5.37.86,8,1.33l1.1,2.63q-.54,6.68-1.06,13.36h-8.09C437.64,352.31,437.46,351.42,437.29,350.53Z" transform="translate(-41.22 -150.83)"/>
      <path class="cls-15" d="M668.42,165.35l.26-.53-.32.47Z" transform="translate(-41.22 -150.83)"/>
      <path class="cls-4" d="M616.41,181.58l13.35-6.9,8-1.41c5.37,7.44,11.92,14.06,15.43,22.79,2.46,6.14,5.38,12.12,4.43,19-3.08-2.13-6.21-4.2-9.23-6.41-5-3.66-9.9-4.59-14.67.36.18-1.82-.72-3.23-1.49-4.83C628.15,195.8,622.46,188.57,616.41,181.58Z" transform="translate(-41.22 -150.83)"/>
      <path class="cls-6" d="M419.27,319.89c-1.88,3.45-5.31,5.31-8.06,7.86l-2.53,1.39q.12-6.64.23-13.29C413,315.51,415.27,320,419.27,319.89Z" transform="translate(-41.22 -150.83)"/>
      <path class="cls-4" d="M621.62,225.23l-1.11.07c-4-.19-4.39-3.77-5.86-6.3-5-8.62-8.64-18.18-17-24.46l1.59-2.29c6.18-2.83,11.62-6.84,17.18-10.67,6.05,7,11.74,14.22,15.79,22.64.77,1.6,1.67,3,1.49,4.83C630,214.69,623.61,218.32,621.62,225.23Z" transform="translate(-41.22 -150.83)"/>
      <path class="cls-16" d="M668.52,168.13l-.73.44c.16-.23.31-.47.47-.71Z" transform="translate(-41.22 -150.83)"/>
      <path class="cls-4" d="M595.54,279.89c-1,12-3.27,23.88-3.22,36-4.2.49-7.25,4.36-11.74,4a22.3,22.3,0,0,1-2.77-9.31c-1-6.8-2.08-13.57-5.31-19.76-.35-6.94,6.32-4.41,9.28-6.89C586.86,284.25,591.08,281.66,595.54,279.89Z" transform="translate(-41.22 -150.83)"/>
      <path class="cls-4" d="M437.82,335.87q-.3-4.62-.59-9.26c1.87-6.13-1.58-12.81,2-18.77,2,3,2.11,7.73,7.09,8.21q-.21,10.57-.43,21.15C443.19,336.73,440.65,335.42,437.82,335.87Z" transform="translate(-41.22 -150.83)"/>
      <path class="cls-4" d="M470.11,329.15l-12.33-25c5.07-8.71,5.51-17.67,1.42-26.86,2.36-4.94,4.44-10.05,6.78-15,2.91-6.12,8.45-10.26,10.57-16.58,4.34-13,8.19-26.14,16-37.65l21.37,6.21c-.84,2.7-3.42,3.28-5.51,4.43a28,28,0,0,0-13.81,17c-3.09,10.1-7.19,20-9.45,30.24-2.43,11.06-11.28,20.42-8.55,32.75-.53,2.67-6.11,1.88-4.2,6.31,3.66,8.48,7.17,17,10.74,25.53l.36,2.62C478.71,332.84,475.19,328.4,470.11,329.15Z" transform="translate(-41.22 -150.83)"/>
      <path class="cls-4" d="M459.2,277.24c4.09,9.19,3.65,18.15-1.42,26.86l-11.5,11.95c-5-.48-5-5.19-7.08-8.21,7.18-10.32,6.29-21.57,3.81-33,3.21-1.41,3.38-5.81,6.87-6.93C454.08,269.92,455.63,274.59,459.2,277.24Z" transform="translate(-41.22 -150.83)"/>
      <path class="cls-4" d="M563.15,317.22c-4.38-.21-7.86,3.57-12.37,2.77-1.38-3-.66-6.29-1.08-9.43.15-3.56.29-7.13.44-10.69,5.37-2,9.06-8.4,8.74-13.79a32.71,32.71,0,0,0-4.68-15.37c-4.82-8.34-11-15.33-16.9-22.62-1.83-2.24-3.85-3-7-2-5,1.57-10.06,3-15.11,4.24-10.38,2.53-17.54,9.89-18.69,21-2.47.44-3,2.54-3.32,4.41-1.71,9.13-7,15.87-14,21.51l-2.63,1.45c-2.73-12.33,6.12-21.69,8.55-32.75,2.26-10.27,6.36-20.14,9.45-30.24a28,28,0,0,1,13.81-17c2.09-1.15,4.67-1.73,5.51-4.43,9.31.63,18.56,2,27.92,1.66-.09,1.87.23,3.51,2.12,4.46,5.45,2.73,8,8.06,11.1,12.78,2.08,3.1,3.25,8.51,5.87,9.26,9,2.61,10.3,11.41,15.59,16.86,2.39,2.46,4.87,4.61,6.5,8,2.91,6.11-.49,11.13-1.21,16.6-3,2.48-9.63,0-9.28,6.89q-4.39,12.58-8.77,25.17Z" transform="translate(-41.22 -150.83)"/>
      <path class="cls-4" d="M469.84,205l5.35.26c-15.93,16.84-14.61,41-25.32,60-6.14-2.47-6-10-10.88-13.51-2.71-2.87,1.7-8.32-3.69-10.23-1.41-7.29,3.55-13.38,3.86-20.35,8.85-2.84,14.56-10.82,23.13-14.07C464.72,206.17,467.32,205.68,469.84,205Z" transform="translate(-41.22 -150.83)"/>
      <path class="cls-6" d="M419.27,319.89c-4,.06-6.25-4.38-10.36-4q0-15.3,0-30.6c5.35-1.59,5.79-6.57,7.77-10.69,3.74-7.8,7.61-15.63,14.52-21.3a119.31,119.31,0,0,0-1.28,24.32c.69,14.34-1.32,28.06-8.35,40.79Z" transform="translate(-41.22 -150.83)"/>
      <path class="cls-6" d="M431.19,253.26c-6.91,5.67-10.78,13.5-14.52,21.3-2,4.12-2.42,9.1-7.77,10.69-1.4-21.7,3.19-41.37,19.07-57.37a24.52,24.52,0,0,1,11.2-6.72c-.32,7-5.28,13.06-3.87,20.35Z" transform="translate(-41.22 -150.83)"/>
      <path class="cls-4" d="M581.78,283.9c.72-5.47,4.12-10.49,1.21-16.6-1.63-3.42-4.11-5.57-6.5-8-5.29-5.45-6.59-14.25-15.59-16.86-2.62-.75-3.79-6.16-5.87-9.26-3.15-4.72-5.65-10.05-11.1-12.78-1.89-1-2.21-2.59-2.12-4.46,11.44-.34,22.7-1.61,33.19-6.68,2.78,4,8.54,5.42,9.82,10.39,2.53,9.77,11.07,15.33,15.69,23.62,2.19,3.94,4.93,7.74,9.14,10-2.18,10.21-8.07,18.47-14.11,26.63C591.08,281.66,586.86,284.25,581.78,283.9Z" transform="translate(-41.22 -150.83)"/>
      <path class="cls-4" d="M609.65,253.26c-4.21-2.28-6.95-6.08-9.14-10-4.62-8.29-13.16-13.85-15.69-23.62-1.28-5-7-6.43-9.82-10.39,2.44-2.5,6.3-3.13,8.29-6.23l14.35-8.46c8.37,6.28,12,15.84,17,24.46,1.47,2.53,1.86,6.11,5.86,6.3C615.18,234,612.75,243.74,609.65,253.26Z" transform="translate(-41.22 -150.83)"/>
      <path class="cls-4" d="M483.18,205.24l9.34,2.8c-7.78,11.51-11.63,24.68-16,37.65-2.12,6.32-7.66,10.46-10.57,16.58-2.34,4.92-4.42,10-6.78,15-3.57-2.65-5.12-7.32-9.32-9.34,0-.88,0-1.77,0-2.65,10.71-19,9.39-43.16,25.32-60Z" transform="translate(-41.22 -150.83)"/>
      <path class="cls-4" d="M449.87,265.25c0,.88,0,1.77,0,2.65-3.49,1.12-3.66,5.52-6.87,6.93-3.5-7.32-4.07-15.15-4-23.08C443.85,255.25,443.73,262.78,449.87,265.25Z" transform="translate(-41.22 -150.83)"/>
      <path class="cls-13" d="M550.14,299.87c-.91-4.53,1.8-10.37-1.35-13.42s-8.86-.71-13.44-1c-7.73-.43-14.65-3.06-21.17-7-5.5-3.34-11-6.6-17.65-7.13,1.15-11.12,8.31-18.48,18.69-21,5-1.22,10.13-2.67,15.11-4.24,3.12-1,5.14-.24,7,2,6,7.29,12.08,14.28,16.9,22.62a32.71,32.71,0,0,1,4.68,15.37C559.2,291.47,555.51,297.86,550.14,299.87Z" transform="translate(-41.22 -150.83)"/>
      <path class="cls-17" d="M644,362.31a.42.42,0,0,0,0-.84.42.42,0,0,0,0,.84Z" transform="translate(-41.22 -150.83)"/>
    </g>
  </g>
  <g>
    <path class="cls-14" d="M1274.63,384.45q-53.2,0-106.42-.08c-2.52,0-6,1.7-7.25-2.52,3.45-1.38,8.23,2.43,10.71-2.75a36.14,36.14,0,0,1,11.15-1.36c41.26,0,82.53-.24,123.77,1.34,6.23,2.2,12.46,2.59,18.71.11,6.63-.25,13,2.59,19.78.87,0,.73,0,1.45,0,2.18Z" transform="translate(-41.22 -150.83)"/>
    <path class="cls-14" d="M1157,381.85c0,.44,0,.88,0,1.32l-4,0-14.72,0-29.41,0-2.89-2.2c15.84-1.31,31.39-2.29,47-1.81A4.54,4.54,0,0,0,1157,381.85Z" transform="translate(-41.22 -150.83)"/>
    <path class="cls-11" d="M1138.24,383.13l14.72,0C1149.22,387,1141.93,387,1138.24,383.13Z" transform="translate(-41.22 -150.83)"/>
    <path class="cls-4" d="M1371.1,230.26c-1.09-4.71-1.43-9.66-4.36-13.79,1-6.95-2-12.95-4.44-19.11-3.53-8.76-10.09-15.41-15.49-22.87l4.38-2.42c9.47,1.3,17.49-4.3,26.42-5.53l-.06-.06c0,.86-.07,1.72-.1,2.58-.15.24-.31.48-.47.71l.74-.44c1,.27,2.68.23,3,.86.63,1.28-.87,1.88-1.83,2.15-7.65,2.18-6.27,6.32-3.31,11.84,6.33,11.82,9.66,24.81,13.45,37.58,1.35,4.57-.89,8.06-4.42,10.24C1379.92,234.88,1375.23,233.76,1371.1,230.26Z" transform="translate(-41.22 -150.83)"/>
    <path class="cls-4" d="M1325.42,182.83l13.4-6.93,8-1.41c5.4,7.46,12,14.11,15.49,22.87,2.47,6.16,5.4,12.16,4.44,19.11-3.09-2.14-6.22-4.22-9.26-6.43-5-3.68-9.93-4.61-14.71.36.17-1.84-.73-3.25-1.5-4.86C1337.2,197.1,1331.5,189.85,1325.42,182.83Z" transform="translate(-41.22 -150.83)"/>
    <path class="cls-6" d="M1127.59,321.63c-1.88,3.46-5.33,5.32-8.09,7.88l-2.53,1.4q.1-6.68.22-13.34C1121.32,317.23,1123.58,321.68,1127.59,321.63Z" transform="translate(-41.22 -150.83)"/>
    <path class="cls-4" d="M1330.65,226.63l-1.12.07c-4-.19-4.4-3.78-5.88-6.32-5-8.65-8.66-18.25-17.07-24.54l1.6-2.31c6.2-2.83,11.67-6.86,17.24-10.7,6.08,7,11.78,14.27,15.85,22.71.77,1.61,1.67,3,1.5,4.86C1339.06,216.06,1332.65,219.7,1330.65,226.63Z" transform="translate(-41.22 -150.83)"/>
    <path class="cls-4" d="M1304.48,281.49c-1,12-3.28,24-3.23,36.09-4.22.49-7.28,4.37-11.78,4a22.42,22.42,0,0,1-2.79-9.34c-1-6.82-2.08-13.62-5.33-19.83-.35-7,6.35-4.43,9.32-6.91C1295.77,285.86,1300,283.25,1304.48,281.49Z" transform="translate(-41.22 -150.83)"/>
    <path class="cls-4" d="M1201.09,209.38c-7.8,11.55-11.67,24.76-16,37.79-2.12,6.33-7.69,10.49-10.61,16.63-2.34,4.94-4.43,10.06-6.8,15,4.11,9.23,3.67,18.21-1.43,26.95l11.4,23.15a6,6,0,0,1,1.84,1.92c4.64-.18,8,3.8,12.54,4.11-.11-.87-.23-1.75-.35-2.63-3.59-8.54-7.11-17.11-10.78-25.62-1.92-4.45,3.68-3.65,4.21-6.33-2.74-12.38,6.14-21.77,8.58-32.86,2.27-10.31,6.38-20.21,9.48-30.36a28.12,28.12,0,0,1,13.86-17.1c2.1-1.15,4.68-1.73,5.54-4.44Z" transform="translate(-41.22 -150.83)"/>
    <path class="cls-4" d="M1167.66,278.82c4.11,9.23,3.67,18.21-1.43,26.95l-11.53,12c-5-.48-5.06-5.21-7.11-8.24,7.21-10.35,6.31-21.65,3.83-33.13,3.21-1.41,3.39-5.83,6.89-6.95C1162.53,271.47,1164.08,276.16,1167.66,278.82Z" transform="translate(-41.22 -150.83)"/>
    <path class="cls-4" d="M1272,318.94c-4.39-.21-7.88,3.58-12.41,2.79-1.39-3-.66-6.32-1.08-9.47.15-3.57.29-7.15.44-10.73,5.39-2,9.09-8.42,8.77-13.84a32.83,32.83,0,0,0-4.69-15.42c-4.85-8.37-11-15.38-17-22.69-1.84-2.26-3.86-3-7-2-5,1.58-10.1,3-15.16,4.26-10.42,2.54-17.61,9.92-18.76,21.08-2.48.44-3,2.56-3.33,4.43-1.72,9.16-7,15.93-14.06,21.58l-2.64,1.46c-2.74-12.38,6.14-21.77,8.58-32.86,2.27-10.31,6.38-20.21,9.48-30.36a28.12,28.12,0,0,1,13.86-17.1c2.1-1.15,4.68-1.73,5.54-4.44,9.33.64,18.62,2,28,1.67-.09,1.87.24,3.52,2.13,4.47,5.47,2.74,8,8.09,11.14,12.82,2.08,3.12,3.25,8.54,5.88,9.3,9,2.62,10.35,11.45,15.65,16.92,2.4,2.47,4.89,4.62,6.53,8.06,2.91,6.13-.5,11.17-1.22,16.66-3,2.48-9.67-.06-9.32,6.91l-8.79,25.26Z" transform="translate(-41.22 -150.83)"/>
    <path class="cls-4" d="M1178.34,206.32l5.36.26c-16,16.9-14.65,41.1-25.4,60.21-6.17-2.48-6-10-10.92-13.55-2.72-2.89,1.71-8.35-3.7-10.27-1.42-7.32,3.56-13.43,3.88-20.42,8.87-2.85,14.6-10.87,23.2-14.12C1173.2,207.5,1175.81,207,1178.34,206.32Z" transform="translate(-41.22 -150.83)"/>
    <path class="cls-6" d="M1127.59,321.63c-4,.05-6.27-4.4-10.4-4.06V286.86c5.36-1.59,5.8-6.59,7.79-10.73,3.75-7.82,7.63-15.68,14.58-21.37a118.71,118.71,0,0,0-1.29,24.4c.69,14.39-1.32,28.16-8.38,40.94Z" transform="translate(-41.22 -150.83)"/>
    <path class="cls-6" d="M1139.56,254.76c-7,5.69-10.83,13.55-14.58,21.37-2,4.14-2.43,9.14-7.79,10.73-1.42-21.78,3.2-41.51,19.13-57.57a24.69,24.69,0,0,1,11.24-6.74c-.32,7-5.3,13.1-3.88,20.42Q1141.61,248.87,1139.56,254.76Z" transform="translate(-41.22 -150.83)"/>
    <path class="cls-4" d="M1290.67,285.51c.72-5.49,4.13-10.53,1.22-16.66-1.64-3.44-4.13-5.59-6.53-8.06-5.3-5.47-6.61-14.3-15.65-16.92-2.63-.76-3.8-6.18-5.88-9.3-3.17-4.73-5.67-10.08-11.14-12.82-1.89-.95-2.22-2.6-2.13-4.47,11.48-.35,22.78-1.62,33.3-6.71,2.79,4,8.57,5.45,9.86,10.43,2.53,9.8,11.11,15.39,15.74,23.7,2.21,4,5,7.77,9.18,10.06-2.19,10.25-8.1,18.53-14.17,26.73C1300,283.25,1295.77,285.86,1290.67,285.51Z" transform="translate(-41.22 -150.83)"/>
    <path class="cls-4" d="M1318.64,254.76c-4.22-2.29-7-6.1-9.18-10.06-4.63-8.31-13.21-13.9-15.74-23.7-1.29-5-7.07-6.45-9.86-10.43,2.46-2.51,6.32-3.13,8.32-6.25l14.41-8.48c8.4,6.29,12,15.89,17.06,24.54,1.48,2.54,1.87,6.13,5.88,6.32C1324.19,235.39,1321.75,245.2,1318.64,254.76Z" transform="translate(-41.22 -150.83)"/>
    <path class="cls-4" d="M1191.73,206.57l9.36,2.81c-7.8,11.55-11.67,24.76-16,37.79-2.12,6.33-7.69,10.49-10.61,16.63-2.34,4.94-4.43,10.06-6.8,15-3.58-2.66-5.13-7.35-9.35-9.37,0-.89,0-1.77,0-2.66,10.75-19.11,9.42-43.31,25.4-60.21Z" transform="translate(-41.22 -150.83)"/>
    <path class="cls-4" d="M1158.3,266.79c0,.89,0,1.77,0,2.66-3.5,1.12-3.68,5.54-6.89,6.95-3.52-7.34-4.09-15.19-4-23.16C1152.26,256.76,1152.13,264.31,1158.3,266.79Z" transform="translate(-41.22 -150.83)"/>
    <path class="cls-13" d="M1258.92,301.53c-.91-4.55,1.81-10.4-1.36-13.46s-8.88-.72-13.48-1a45.34,45.34,0,0,1-21.24-7c-5.53-3.35-11.07-6.62-17.72-7.15,1.15-11.17,8.34-18.55,18.76-21.09,5.06-1.23,10.16-2.68,15.16-4.26,3.13-1,5.15-.24,7,2,6,7.31,12.12,14.32,17,22.69a32.83,32.83,0,0,1,4.69,15.42C1268,293.11,1264.31,299.52,1258.92,301.53Z" transform="translate(-41.22 -150.83)"/>
    <path class="cls-18" d="M1322.51,376.53l16.3-.1c2.92,1.82,6.18,1.26,9.35,1.32,3.54.6,7.4-1.28,10.68,1.34-8.06-.49-15.95,2.19-24,1.36-54.16,1.86-108.34,1.29-162.52,1.24-2.53,0-6,1.71-7.31-2.48l1.69-2.83c25.37-1.95,50.78-1,76.17-1.39,2.44-.51,4.88,2.49,7.34,0,17.93-.52,35.78,2.38,53.72,1.38A26.53,26.53,0,0,0,1322.51,376.53Z" transform="translate(-41.22 -150.83)"/>
    <path class="cls-13" d="M1319.83,376.53a26.5,26.5,0,0,1-18.61-.13c.61-4-2-6.62-4.75-8.06-5.26-2.74-6.48-6.73-5.55-12l8.65-1.37c-.54,4.69,2.75,7.49,5.93,9.33C1311.12,367.52,1315,372.59,1319.83,376.53Z" transform="translate(-41.22 -150.83)"/>
    <path class="cls-13" d="M1143.86,363c-1-1.61-2-3.22-1.49-5.27,3,.87,6,1.73,9.23,1.36,5.93,5,12.05,9.8,15.06,17.33l-1.69,2.83-15.91-.31.12-2.33C1151.82,370.31,1146.44,367.18,1143.86,363Z" transform="translate(-41.22 -150.83)"/>
    <path class="cls-19" d="M1348.16,377.75c-3.17-.06-6.43.5-9.35-1.32,2.5-6.5,8.68-7,14.1-7.76,2.45-.37,6.82-3.31,7.52-.24.79,3.51-4.08,3.37-6.91,4.24C1351,373.45,1348.34,374.36,1348.16,377.75Z" transform="translate(-41.22 -150.83)"/>
    <path class="cls-18" d="M1149.18,376.57l-.12,2.33c-5.85,3.19-12.18,1.46-18.21,1.28-4.51-.14-9.12-1.17-13.75-1.58C1127.81,377.63,1138.4,375.61,1149.18,376.57Z" transform="translate(-41.22 -150.83)"/>
    <path class="cls-4" d="M1299.57,355l-8.65,1.37q-.11-5.32-.2-10.65l7.76-2.68c.69,2.67-.63,5.6,1.09,8.13Z" transform="translate(-41.22 -150.83)"/>
    <path class="cls-13" d="M1213.13,357.7c4.19,5.15,4.42,11.12,3.61,17.32-2.46,2.46-4.89-.54-7.34,0-.49-.41-.93-1-1.49-1.19-7-1.91-7.68-6.32-4.85-12.15C1206.73,361.16,1210.34,360.45,1213.13,357.7Z" transform="translate(-41.22 -150.83)"/>
    <path class="cls-4" d="M1142.29,348.36c2.11-2.89.47-5.75.15-8.7-.27-2.43-1.18-5.21,1-7.39,3.64-.15,5,4.77,8.92,4q-.39,11.39-.79,22.77c-3.2.37-6.22-.49-9.24-1.36Q1142.33,353,1142.29,348.36Z" transform="translate(-41.22 -150.83)"/>
    <path class="cls-4" d="M1300,325.63c-.12,2.18-.23,4.37-.35,6.55-2,3.44-.35,7.25-1.15,10.81l-7.76,2.68c-.06-3-.13-6.06-.19-9.09C1292.21,331.65,1293.86,326.72,1300,325.63Z" transform="translate(-41.22 -150.83)"/>
    <path class="cls-4" d="M1202.4,357.71l-13.6-15.95c0-.45.07-.9.1-1.34,2.45-.67,5.07-.92,7-2.91.4,0,.8.1,1.19.17,3.24,6.36,8.92,10.68,13.39,16l2.68,4c-2.79,2.75-6.4,3.46-10.07,3.95Z" transform="translate(-41.22 -150.83)"/>
    <path class="cls-4" d="M1155.41,317.57c-.22,5.89-2.87,11.43-2.4,17.41-.2.44-.41.87-.62,1.3-3.91.76-5.28-4.16-8.92-4,0-1.77.07-3.54.11-5.31,2.25-6.15.25-12.76,2-19,2.42.67,2.84,2.82,3.85,4.72C1150.66,315,1151.77,318,1155.41,317.57Z" transform="translate(-41.22 -150.83)"/>
    <path class="cls-4" d="M1243.65,342.74a167.16,167.16,0,0,1,15.06-22.41c4.33,2.59,7.72-2.83,11.91-1.39l1.48,1.44c-.07,1.31-.14,2.61-.2,3.92-6.12,1.08-7.77,6-9.44,10.94-5.47.61-6.23,6.1-9.43,9.06C1249.89,343.86,1246.38,345.62,1243.65,342.74Z" transform="translate(-41.22 -150.83)"/>
    <path class="cls-13" d="M1245,342.74c2.74,2.88,6.25,1.12,9.39,1.56-5.66,7.29-10.26,15.71-20.65,17.62-3.59.66-5.41.71-3.52-3.55,1.33-3,2.65-6,3.92-9.08.77-1.82,1.88-2.08,3.71-1.4,4.27,1.58,5-1.14,5-4.46Z" transform="translate(-41.22 -150.83)"/>
    <path class="cls-20" d="M1115.53,325.62l1.55.11C1116.5,326.46,1116,326.83,1115.53,325.62Z" transform="translate(-41.22 -150.83)"/>
    <path class="cls-4" d="M1189.48,328.35c4.49,3.29,6,8.86,9.66,12.77-2.28,2.41-5.44,2.71-8.4,3.51q-7.17-8.92-14.33-17.84C1180.93,326,1185.06,328.4,1189.48,328.35Z" transform="translate(-41.22 -150.83)"/>
    <path class="cls-4" d="M1287.85,319l.15-4a10.06,10.06,0,0,0,7-4.37c1.71-2.39,2.92-5.55,6.34-6.31.71,8.52-.87,16.93-1.33,25.39-4.19-1.43-7.58,4-11.9,1.39Q1288,325,1287.85,319Z" transform="translate(-41.22 -150.83)"/>
    <path class="cls-4" d="M1268.75,319.19c.33,3.35-5.77,8.91-8,11.83a66.5,66.5,0,0,1-9.22,9.83c-1.94,1.72.91,4.54,2.84,2.84a85.92,85.92,0,0,0,11-12.29c3.3-4.27,7.91-6.11,7.31-12.21-.25-2.55-4.26-2.58-4,0Z" transform="translate(-41.22 -150.83)"/>
    <path class="cls-4" d="M1288.12,331.83c.36,7.24-1.33,14.69,2.78,21.17,1.38,2.17,4.85.16,3.46-2-3.65-5.75-1.91-12.72-2.23-19.14-.13-2.57-4.14-2.58-4,0Z" transform="translate(-41.22 -150.83)"/>
    <path class="cls-4" d="M1290.26,329.3v10.43c0,2.58,4,2.58,4,0V329.3c0-2.58-4-2.59-4,0Z" transform="translate(-41.22 -150.83)"/>
    <path class="cls-4" d="M1151.93,284c-.06,7.19-.32,14.21-3.84,20.66-2.75,5-5.16,9.48-6.61,15.1-2.92,11.23-3,23.1,1.33,34,1,2.37,4.83,1.34,3.87-1.06-4.71-11.71-4.09-24.87.11-36.66,1.92-5.4,5.69-9.81,7.38-15.29s1.73-11.12,1.78-16.71c0-2.58-4-2.58-4,0Z" transform="translate(-41.22 -150.83)"/>
    <path class="cls-4" d="M1152.5,355.28a82.08,82.08,0,0,1,9.6-50.35c1.25-2.26-2.22-4.29-3.47-2a85.76,85.76,0,0,0-10.14,52.38c.32,2.53,4.34,2.56,4,0Z" transform="translate(-41.22 -150.83)"/>
  </g>
</svg>
